<?xml version="1.0" encoding="UTF-8" standalone="no"?>
<svg
   xmlns:dc="http://purl.org/dc/elements/1.1/"
   xmlns:cc="http://creativecommons.org/ns#"
   xmlns:rdf="http://www.w3.org/1999/02/22-rdf-syntax-ns#"
   xmlns:svg="http://www.w3.org/2000/svg"
   xmlns="http://www.w3.org/2000/svg"
   xmlns:sodipodi="http://sodipodi.sourceforge.net/DTD/sodipodi-0.dtd"
   xmlns:inkscape="http://www.inkscape.org/namespaces/inkscape"
   width="1191.6973"
   height="3138.5261"
   viewBox="0 0 1191.6973 3138.5262"
   version="1.1"
   xml:space="preserve"
   style="clip-rule:evenodd;fill-rule:evenodd;stroke-linecap:round;stroke-linejoin:round;stroke-miterlimit:1.5"
   id="svg193"
   sodipodi:docname="Slice1.svg"
   inkscape:version="1.0.2-2 (e86c870879, 2021-01-15)"><metadata
   id="metadata199"><rdf:RDF><cc:Work
       rdf:about=""><dc:format>image/svg+xml</dc:format><dc:type
         rdf:resource="http://purl.org/dc/dcmitype/StillImage" /><dc:title></dc:title></cc:Work></rdf:RDF></metadata><defs
   id="defs197" /><sodipodi:namedview
   pagecolor="#ffffff"
   bordercolor="#666666"
   borderopacity="1"
   objecttolerance="10"
   gridtolerance="10"
   guidetolerance="10"
   inkscape:pageopacity="0"
   inkscape:pageshadow="2"
   inkscape:window-width="1920"
   inkscape:window-height="1001"
   id="namedview195"
   showgrid="false"
   inkscape:zoom="1.1484867"
   inkscape:cx="380.583"
   inkscape:cy="76.238386"
   inkscape:window-x="-9"
   inkscape:window-y="-9"
   inkscape:window-maximized="1"
   inkscape:current-layer="g74"
   fit-margin-top="0"
   fit-margin-left="0"
   fit-margin-right="0"
   fit-margin-bottom="0" />
    <g
   transform="translate(-46.864046,-82.381106)"
   id="g191">
        <g
   id="g189">
            <g
   id="g74">
                <g
   transform="matrix(0.93095813,0,0,0.89743,46.939762,120.94873)"
   id="g5">
                    <g
   id="Ebene1"
   transform="translate(0,55.71465)">
                        <rect
   x="-0.0052552028"
   y="-98.690285"
   width="1280"
   height="800"
   style="fill:#fbe6ae"
   id="rect2" />
                    </g>
                </g>
                <g
   id="Ebene2"
   transform="matrix(1,0,0,1.44733,0,-90.5007)">
                    <path
   d="M 0,166.675 455.53,400 H 389.068 L 0,296.585 Z"
   style="fill:#a7d1a0;stroke:#a7d1a0;stroke-width:0.8px"
   id="path7" />
                    <g
   transform="matrix(1,0,0,0.690926,0,62.5293)"
   id="g11">
                        <path
   d="M 1280,176.986 825.128,488.432 h 66.366 L 1280,350.392 Z"
   style="fill:#a7d1a0;stroke:#a7d1a0;stroke-width:1px"
   id="path9" />
                    </g>
                    <g
   transform="matrix(-1.00064,0,0,0.461129,1401.61,215.548)"
   id="g15">
                        <path
   d="M 121.535,247.102 455.53,400 H 389.068 L 121.535,326.824 Z"
   style="fill:#a7d1a0;stroke:#a7d1a0;stroke-width:1.18px"
   id="path13" />
                    </g>
                    <g
   transform="matrix(1.00385,0,0,0.558948,-122.004,176.421)"
   id="g19">
                        <path
   d="M 121.535,273.86 455.53,400 430.345,414.299 121.535,336.93 Z"
   style="fill:#a7d1a0;stroke:#a7d1a0;stroke-width:1.1px"
   id="path17" />
                    </g>
                    <g
   transform="matrix(0.958722,-0.0863584,0.0802291,0.425191,-158.49,288.227)"
   id="g23">
                        <path
   d="M 121.535,273.86 455.53,400 430.345,414.299 121.535,336.93 Z"
   style="fill:#a7d1a0;stroke:#a7d1a0;stroke-width:1.23px"
   id="path21" />
                    </g>
                    <g
   transform="matrix(1.02934,0,0,1.00155,0,-211.262)"
   id="g27">
                        <path
   d="m 123.995,210.934 434.378,399.379 h -53.92 L 0,291.251 v -80.317 z"
   style="fill:#a7d1a0;stroke:#a7d1a0;stroke-width:0.8px"
   id="path25" />
                    </g>
                    <g
   transform="matrix(-0.97928,-0.0199714,-0.0281834,1.38195,1285.94,-289.023)"
   id="g31">
                        <path
   d="M 90.957,210.456 536.428,506.34 501.125,505.83 -2.152,285.721 0.052,209.142 Z"
   style="fill:#a7d1a0;stroke:#a7d1a0;stroke-width:0.64px"
   id="path29" />
                    </g>
                    <g
   transform="translate(-19.1961)"
   id="g35">
                        <path
   d="M 246.961,0 H 405.655 L 640,400 h -47.032 z"
   style="fill:#a7d1a0;stroke:#a7d1a0;stroke-width:0.8px"
   id="path33" />
                    </g>
                    <g
   transform="matrix(-1.13558,0,0,1,1404.1,0)"
   id="g39">
                        <path
   d="M 271.413,0 H 415.847 L 640,400 h -47.032 z"
   style="fill:#a7d1a0;stroke:#a7d1a0;stroke-width:0.77px"
   id="path37" />
                    </g>
                    <g
   transform="translate(9.94036)"
   id="g43">
                        <path
   d="M 489.631,0 H 624.218 L 640,400 h -24.58 z"
   style="fill:#a7d1a0;stroke:#a7d1a0;stroke-width:0.8px"
   id="path41" />
                    </g>
                    <g
   transform="matrix(-0.983688,0,0,1,1306.77,0)"
   id="g47">
                        <path
   d="m 489.631,0 h 137.767 l 12.486,400 h -19.021 z"
   style="fill:#a7d1a0;stroke:#a7d1a0;stroke-width:0.81px"
   id="path45" />
                    </g>
                </g>
                <g
   transform="matrix(0.992932,0,0,1.08082,9.2688,-69.7384)"
   id="g68"
   style="fill:none;fill-opacity:1">
                    <g
   transform="matrix(0.749618,0,0,0.580441,337.724,115.641)"
   id="g52"
   style="fill:none;fill-opacity:1">
                        
                    </g>
                    <g
   id="Ebene3"
   transform="translate(0,10.6568)"
   style="fill:none;fill-opacity:1">
                        <g
   transform="matrix(0.640585,0,0,0.640585,-9.6366,240.954)"
   id="g61"
   style="fill:none;fill-opacity:1">
                            <clipPath
   id="_clip1">
                                <rect
   x="-9.9069996"
   y="198.69901"
   width="836.70898"
   height="596.66199"
   id="rect54" />
                            </clipPath>
                            <g
   clip-path="url(#_clip1)"
   id="g59"
   style="fill:none;fill-opacity:1">
                                
                            </g>
                        </g>
                        <g
   transform="translate(0,-66.3834)"
   id="g65"
   style="fill:none;fill-opacity:1">
                            
                        </g>
                    </g>
                </g>
                <g
   transform="translate(0.518931,-14.0514)"
   id="g72">
                    <path
   d="m 1107.78,329.969 6.29,0.073 0.08,-6.452 c 0,0 -2.94,-5.368 -6.49,-0.627 -0.32,0.431 0.12,7.006 0.12,7.006 z"
   style="fill:#ffffff;stroke:#ffffff;stroke-width:1px"
   id="path70" />
                </g>
            </g>
            <g
   transform="translate(-34.358939,14.618452)"
   id="g187">
                <g
   id="Ebene4">
                </g>
                <g
   transform="matrix(0.5,0,0,1,425,0)"
   id="g79">
                    
                </g>
                <g
   transform="matrix(0.5,0,0,1,50.6384,189.156)"
   id="g83">
                    <rect
   x="850"
   y="110"
   width="10"
   height="10"
   style="fill:#ffffff"
   id="rect81" />
                </g>
                <g
   transform="matrix(0.5,0,0,1,77.0844,189.156)"
   id="g87">
                    <rect
   x="850"
   y="110"
   width="10"
   height="10"
   style="fill:#ffffff"
   id="rect85" />
                </g>
                <g
   transform="matrix(0.5,0,0,1,62.9286,213.726)"
   id="g91">
                    <rect
   x="850"
   y="110"
   width="10"
   height="10"
   style="fill:#ffffff"
   id="rect89" />
                </g>
                <g
   transform="matrix(0.5,0,0,1,89.8914,231.431)"
   id="g95">
                    <rect
   x="850"
   y="110"
   width="10"
   height="10"
   style="fill:#ffffff"
   id="rect93" />
                </g>
                <g
   transform="matrix(0.5,0,0,1,445,0)"
   id="g99">
                    
                </g>
                <g
   transform="translate(8.20934,3.77728)"
   id="g117">
                    <g
   transform="matrix(0.853556,0,0,1,-604.728,317.655)"
   id="g103">
                        <rect
   x="850"
   y="110"
   width="10"
   height="10"
   style="fill:#ffffff"
   id="rect101" />
                    </g>
                    <g
   transform="matrix(0.840779,0,0,1.00178,-584.426,317.442)"
   id="g107">
                        <rect
   x="850"
   y="110"
   width="10"
   height="10"
   style="fill:#ffffff"
   id="rect105" />
                    </g>
                    <g
   transform="matrix(0.840779,0,0,1.00178,-593.868,329.693)"
   id="g111">
                        <rect
   x="850"
   y="110"
   width="10"
   height="10"
   style="fill:#ffffff"
   id="rect109" />
                    </g>
                    <g
   transform="matrix(0.840779,0,0,1.00178,-584.426,329.693)"
   id="g115">
                        <rect
   x="850"
   y="110"
   width="10"
   height="10"
   style="fill:#ffffff"
   id="rect113" />
                    </g>
                </g>
                <g
   transform="translate(88.1199,3.77728)"
   id="g135">
                    <g
   transform="matrix(0.853556,0,0,1,-604.728,317.655)"
   id="g121">
                        <rect
   x="850"
   y="110"
   width="10"
   height="10"
   style="fill:#ffffff"
   id="rect119" />
                    </g>
                    <g
   transform="matrix(0.840779,0,0,1.00178,-584.426,317.442)"
   id="g125">
                        <rect
   x="850"
   y="110"
   width="10"
   height="10"
   style="fill:#ffffff"
   id="rect123" />
                    </g>
                    <g
   transform="matrix(0.840779,0,0,1.00178,-593.868,329.693)"
   id="g129">
                        <rect
   x="850"
   y="110"
   width="10"
   height="10"
   style="fill:#ffffff"
   id="rect127" />
                    </g>
                    <g
   transform="matrix(0.840779,0,0,1.00178,-584.426,329.693)"
   id="g133">
                        <rect
   x="850"
   y="110"
   width="10"
   height="10"
   style="fill:#ffffff"
   id="rect131" />
                    </g>
                </g>
                <g
   transform="translate(165.092,3.77728)"
   id="g153">
                    <g
   transform="matrix(0.853556,0,0,1,-604.728,317.655)"
   id="g139">
                        <rect
   x="850"
   y="110"
   width="10"
   height="10"
   style="fill:#ffffff"
   id="rect137" />
                    </g>
                    <g
   transform="matrix(0.840779,0,0,1.00178,-584.426,317.442)"
   id="g143">
                        <rect
   x="850"
   y="110"
   width="10"
   height="10"
   style="fill:#ffffff"
   id="rect141" />
                    </g>
                    <g
   transform="matrix(0.840779,0,0,1.00178,-593.868,329.693)"
   id="g147">
                        <rect
   x="850"
   y="110"
   width="10"
   height="10"
   style="fill:#ffffff"
   id="rect145" />
                    </g>
                    <g
   transform="matrix(0.840779,0,0,1.00178,-584.426,329.693)"
   id="g151">
                        <rect
   x="850"
   y="110"
   width="10"
   height="10"
   style="fill:#ffffff"
   id="rect149" />
                    </g>
                </g>
                <g
   transform="matrix(0.5,0,0,1,465,0)"
   id="g157">
                    
                </g>
                <g
   transform="matrix(0.5,0,0,1,485,0)"
   id="g161">
                    
                </g>
                <g
   transform="matrix(0.5,0,0,1,505,0)"
   id="g165">
                    
                </g>
                <g
   transform="matrix(0.5,0,0,1,425,20)"
   id="g169">
                    
                </g>
                <g
   transform="matrix(0.5,0,0,1,445,20)"
   id="g173">
                    
                </g>
                <g
   transform="matrix(0.5,0,0,1,465,20)"
   id="g177">
                    
                </g>
                <g
   transform="matrix(0.5,0,0,1,485,20)"
   id="g181">
                    
                </g>
                <g
   transform="matrix(0.5,0,0,1,504.99947,50.257202)"
   id="g185">
                    <g
   id="g1065"><path
     style="clip-rule:evenodd;fill:#182f48;fill-opacity:1;fill-rule:evenodd;stroke:#000000;stroke-width:1.40126px;stroke-linecap:round;stroke-linejoin:round;stroke-miterlimit:1.5"
     d="m 877.29536,331.74176 v 0 l 140.44454,-0.23088 v 8.84064 h 34.2387 l 19.4952,-19.88392 22.1867,19.88392 v 3.21518 h 7.4432 v -4.82245 c 2.4294,-1.96989 8.2128,-5.05207 14.8864,-6.42974 h 58.057 l 17.8636,11.25219 18.608,-7.6355 3.9166,-26.43285 6.5664,17.25971 11.4416,-38.74151 8.7264,38.84691 6.5204,-17.45231 3.7662,17.27728 v -67.11038 h -5.9546 v -3.21518 h 5.9546 v -1.60728 l 2.888,-12.45043 c 3.0962,-2.31681 7.86,-4.12359 14.5588,-5.33438 l 0.2382,-10.81304 9.1104,-6.36386 v -9.64491 h 2.9774 v 9.64491 l 10.4204,6.42973 0.148,10.76411 c 5.7164,1.10163 10.7928,2.56776 15.3778,4.32622 l 6.7882,5.71832 0.02,9.73274 h 7.4432 v 2.41092 h -4.466 l 0.283,24.17439 17.4022,4.76223 -0.3126,25.22897 0.2232,5.6951 c 5.3592,-2.81869 12.326,-5.61103 20.1116,-6.45231 l 78.2428,0.79109 24.101,11.33312 20.3646,0.20953 0.8188,-33.33875 5.389,-8.10163 -6.3416,-0.0552 0.372,-3.37892 9.2594,0.10979 0.6104,-6.90464 2.62,-3.47616 1.5184,-0.22647 0.3572,-7.12233 3.8854,0.0546 0.074,6.96863 1.846,0.31995 4.183,4.22522 -0.178,6.31931 7.8302,0.0728 -0.2232,3.35947 -6.1332,-0.059 8.4702,7.9153 1.0422,37.70637 83.974,0.54391 56.6428,16.67565 -34.6704,388.59577 H -941.28128 V 566.29432"
     id="path1093"
     sodipodi:nodetypes="cccccccccccccccccccccccccccccccccccccccccccccccccccccccccccccccccccccccc" /><path
     style="clip-rule:evenodd;fill:#182f48;fill-opacity:1;fill-rule:evenodd;stroke:#000000;stroke-width:1.40126px;stroke-linecap:round;stroke-linejoin:round;stroke-miterlimit:1.5"
     d="m 673.34866,380.37896 -2.46275,-169.42632 c -31.55468,-1.92723 -132.90274,12.46674 -148.86394,20.09346 v -4.01882 H 447.58994 V 372.09881 H 391.02166 V 359.64148 H 358.27158 V 337.1371 c -2.29398,-3.64241 -6.71674,-6.83877 -14.68096,-9.51882 -7.3375,-2.35883 -20.11598,-3.61793 -29.97822,-3.74277 l -104.20476,-0.4015 V 275.6522 H 135.72 V 261.58759 H 60.5437 v 61.08278 h -8.93184 l -0.70114,-78.37324 -11.95676,0.0169 0.0358,-24.12106 -32.7976993,0.003 0.0596,8.84504 -38.7477997,-0.0113 -0.0015,14.38519 -40.94206,-0.069 -0.1772,55.89583 c -15.90164,2.05081 -29.037401,7.30112 -35.560621,12.968 l -0.008,9.23274 -26.77318,0.0151 c -15.2898,2.17503 -28.20524,4.94604 -36.47464,10.17501 l 0.1236,32.12859 -40.20518,-0.101 -3.8258,14.0163 h -18.6973 l 1885.35772,6.56808"
     id="path1091" /><path
     style="clip-rule:evenodd;fill:#182f48;fill-opacity:1;fill-rule:evenodd;stroke:#000000;stroke-width:1.40126px;stroke-linecap:round;stroke-linejoin:round;stroke-miterlimit:1.5"
     d="M -941.88044,691.21759 V 269.43782 l 119.60041,-0.25064 -0.89303,105.83924 141.21237,-24.5039 -0.12849,24.82308 30.82207,0.13293 -0.6297,-59.05944 36.94603,-0.39949 -0.53683,49.43983 h 8.62112 l 58.90781,-13.06131 20.94537,-2.084 -0.31039,24.71369 14.50846,-0.20425 125.81851,-24.6216 14.75398,-0.0152 0.0242,28.1277 88.12829,-0.17032 -0.0127,-31.7515 c 5.33525,-2.08191 56.36995,24.13211 56.41193,37.78747"
     id="path1089" /><path
     style="clip-rule:evenodd;fill:#182f48;fill-opacity:1;fill-rule:evenodd;stroke:#000000;stroke-width:1.40126px;stroke-linecap:round;stroke-linejoin:round;stroke-miterlimit:1.5"
     d="M 570.22314,336.23588 461.80886,571.83519"
     id="path1087" /><g
     id="g1106"
     transform="translate(0.43535549,68.786167)"><path
       style="clip-rule:evenodd;fill:#182f48;fill-opacity:1;fill-rule:evenodd;stroke:#000000;stroke-width:1.40126px;stroke-linecap:round;stroke-linejoin:round;stroke-miterlimit:1.5"
       d="m 670.27018,144.41741 v -40.03904 h 17.86368 V 86.697074 h 32.75006 V 70.622428 h 14.8864 v 16.074646 h 116.11386 v 20.896476 h 23.81824 l 1.20908,37.00942"
       id="path1041" /><rect
       x="705.67279"
       y="92.612129"
       width="10"
       height="10"
       style="clip-rule:evenodd;fill:#ffffff;fill-rule:evenodd;stroke-linecap:round;stroke-linejoin:round;stroke-miterlimit:1.5"
       id="rect77" /><rect
       x="754.37988"
       y="92.612129"
       width="10"
       height="10"
       style="clip-rule:evenodd;fill:#ffffff;fill-rule:evenodd;stroke-linecap:round;stroke-linejoin:round;stroke-miterlimit:1.5"
       id="rect97" /><rect
       x="770.87073"
       y="92.829811"
       width="10"
       height="10"
       style="clip-rule:evenodd;fill:#ffffff;fill-rule:evenodd;stroke-linecap:round;stroke-linejoin:round;stroke-miterlimit:1.5"
       id="rect155" /><rect
       x="814.35358"
       y="92.829811"
       width="10"
       height="10"
       style="clip-rule:evenodd;fill:#ffffff;fill-rule:evenodd;stroke-linecap:round;stroke-linejoin:round;stroke-miterlimit:1.5"
       id="rect159" /><rect
       x="758.57538"
       y="129.39967"
       width="10"
       height="10"
       style="clip-rule:evenodd;fill:#ffffff;fill-rule:evenodd;stroke-linecap:round;stroke-linejoin:round;stroke-miterlimit:1.5"
       id="rect163" /><rect
       x="850"
       y="110"
       width="10"
       height="10"
       style="clip-rule:evenodd;fill:#ffffff;fill-rule:evenodd;stroke-linecap:round;stroke-linejoin:round;stroke-miterlimit:1.5"
       id="rect167"
       transform="translate(-160)" /><rect
       x="706.05542"
       y="110"
       width="10"
       height="10"
       style="clip-rule:evenodd;fill:#ffffff;fill-rule:evenodd;stroke-linecap:round;stroke-linejoin:round;stroke-miterlimit:1.5"
       id="rect171" /><rect
       x="739.96051"
       y="110.43536"
       width="10"
       height="10"
       style="clip-rule:evenodd;fill:#ffffff;fill-rule:evenodd;stroke-linecap:round;stroke-linejoin:round;stroke-miterlimit:1.5"
       id="rect175" /><rect
       x="796.50397"
       y="110"
       width="10"
       height="10"
       style="clip-rule:evenodd;fill:#ffffff;fill-rule:evenodd;stroke-linecap:round;stroke-linejoin:round;stroke-miterlimit:1.5"
       id="rect179" /><rect
       x="833.02112"
       y="110.21767"
       width="10"
       height="10"
       style="fill:#ffffff"
       id="rect183" /></g><rect
     style="fill:#182f48;fill-opacity:1;stroke:#1e3249;stroke-width:0"
     id="rect1108"
     width="208.51601"
     height="154.418"
     x="668.16528"
     y="211.6154" /><path
     style="fill:none;stroke:#000000;stroke-width:1.41421px;stroke-linecap:butt;stroke-linejoin:miter;stroke-opacity:1"
     d="m 877.34686,213.38913 -0.0515,118.35263"
     id="path1114"
     sodipodi:nodetypes="cc" /></g>
                </g>
            </g>
        </g>
    </g>
<rect
   style="fill:#182f48;fill-opacity:1;stroke:#1e3249;stroke-width:0;stroke-miterlimit:4;stroke-dasharray:none;stroke-opacity:1"
   id="rect1249"
   width="1189.9994"
   height="2781.0054"
   x="-0.20911179"
   y="357.52136"
   transform="skewX(0.03351198)" /><rect
   style="fill:#182f48;fill-opacity:1;stroke:#1e3249;stroke-width:0"
   id="rect1127"
   width="126.25309"
   height="101.87318"
   x="680.09607"
   y="283.8504"
   ry="0.65303302" /><rect
   style="fill:#182f48;fill-opacity:1;stroke:#1e3249;stroke-width:0"
   id="rect1129"
   width="375.01669"
   height="11.493577"
   x="306.25748"
   y="360.17102" /><rect
   style="fill:#182f48;fill-opacity:1;stroke:#1e3249;stroke-width:0"
   id="rect1133"
   width="119.6749"
   height="3.0014954"
   x="316.09552"
   y="359.35089" /></svg>
