<?xml version="1.0" encoding="UTF-8" standalone="no"?>
<svg
   xmlns:dc="http://purl.org/dc/elements/1.1/"
   xmlns:cc="http://creativecommons.org/ns#"
   xmlns:rdf="http://www.w3.org/1999/02/22-rdf-syntax-ns#"
   xmlns:svg="http://www.w3.org/2000/svg"
   xmlns="http://www.w3.org/2000/svg"
   xmlns:sodipodi="http://sodipodi.sourceforge.net/DTD/sodipodi-0.dtd"
   xmlns:inkscape="http://www.inkscape.org/namespaces/inkscape"
   width="460"
   height="148"
   version="1.1"
   id="svg428"
   sodipodi:docname="bg2.svg"
   inkscape:version="1.0.2-2 (e86c870879, 2021-01-15)">
  <defs
     id="defs432" />
  <sodipodi:namedview
     pagecolor="#ffffff"
     bordercolor="#666666"
     borderopacity="1"
     objecttolerance="10"
     gridtolerance="10"
     guidetolerance="10"
     inkscape:pageopacity="0"
     inkscape:pageshadow="2"
     inkscape:window-width="1920"
     inkscape:window-height="1001"
     id="namedview430"
     showgrid="false"
     inkscape:zoom="2.3286164"
     inkscape:cx="230"
     inkscape:cy="74"
     inkscape:window-x="-9"
     inkscape:window-y="-9"
     inkscape:window-maximized="1"
     inkscape:current-layer="svg428" />
  <metadata
     id="metadata2">
    <rdf:RDF>
      <cc:Work
         rdf:about="">
        <dc:format>image/svg+xml</dc:format>
        <dc:type
           rdf:resource="http://purl.org/dc/dcmitype/StillImage" />
        <dc:title />
      </cc:Work>
    </rdf:RDF>
  </metadata>
  <path
     transform="translate(0)"
     d="m0 0h460v148h-460v-148z"
     fill="#a6d09f"
     id="path4" />
  <path
     transform="translate(0)"
     d="m0 0h250v2h-248l1 58c12.171 6.2888 12.171 6.2888 24.438 7.9375 1.1147 0.02417 1.1147 0.02417 2.252 0.048828 1.7699 0.034255 3.5404 0.028838 5.3105 0.013672v8l3.5 1c5.2631 1.7516 10.116 4.2181 15.044 6.7288 5.1993 2.6487 10.431 5.2133 15.706 7.7087 0.71479 0.34184 1.4296 0.68369 2.166 1.0359 3.1697 1.494 6.1688 2.7544 9.584 3.5266v-4h10l-0.4375 4.5625c0.10893 2.8139 0.10893 2.8139 1.4375 5.4375 2.4142 1.7171 4.4112 2.9185 7.0625 4.125 0.96498 0.44195 0.96498 0.44195 1.9495 0.89282 4.8171 1.9716 8.8043 2.248 13.988 1.9822v5l2.25 0.375c2.75 0.625 2.75 0.625 4.625 1.75 6.1024 2.5127 14.459-1.7287 20.312-3.6875 1.95-0.65256 3.9018-1.2999 5.8555-1.9414 0.85618-0.2869 1.7124-0.57379 2.5945-0.86938 2.3625-0.62671 2.3625-0.62671 6.3625-0.62671v14h24v-16c5.3694 1.0739 6.8209 2.1607 10.75 5.75l2.9219 2.6094c4.4582 5.0566 3.61 11.566 3.8457 18.021 0.072871 4.269 0.072871 4.269 2.4824 7.6191l1-21-4-2c-5.7774-5.5413-10.615-11.976-15.387-18.381-2.3644-3.1364-4.7977-5.8349-7.7383-8.4316-2.7298-2.6139-2.8587-3.0848-3.5-7.125 0.3895-4.3268 1.9238-8.0931 3.625-12.062l2 1c-0.22816 0.59168-0.45633 1.1834-0.69141 1.793-0.28746 0.7902-0.57492 1.5804-0.87109 2.3945-0.29004 0.7773-0.58008 1.5546-0.87891 2.3555-0.66972 2.9458-0.53547 4.5995 0.44141 7.457 1.7154 2.0495 1.7154 2.0495 3.9375 3.9375 3.9544 3.7595 7.0979 7.6624 10.188 12.125 5.3936 7.9212 5.3936 7.9212 11.875 14.938h2c-0.52207-0.60844-1.0441-1.2169-1.582-1.8438-6.7255-8.0093-12.594-16.48-18.418-25.156l1-2c1.3333 0.33333 2.6667 0.66667 4 1 0.61875 0.072188 1.2375 0.14438 1.875 0.21875 3.1284 1.1502 4.3815 3.219 6.375 5.8438 0.70641 0.9191 1.4128 1.8382 2.1406 2.7852 0.53109 0.71027 1.0622 1.4205 1.6094 2.1523l-2.0625-3.375c-1.1602-1.8984-1.1602-1.8984-1.9375-3.625l1-2c3.63 4.29 7.26 8.58 11 13-0.99-1.5881-1.98-3.1762-3-4.8125-3-4.8125-3-4.8125-3-8.1875l8 9-1.8125-3.875c-0.33645-0.7193-0.67289-1.4386-1.0195-2.1797-1.1626-2.2507-1.1626-2.2507-4.168-3.9453l1-2 11 9c-2.7818-3.4773-4.9612-6.017-8.25-8.8125-0.70641-0.60457-1.4128-1.2091-2.1406-1.832-0.53109-0.4473-1.0622-0.89461-1.6094-1.3555 3 0 3 0 6 1l-4-4c8.7726 2.9711 16.345 11.109 21 19v2h2c-5.3187-11.219-10.997-19.894-23.234-24.262-4.3096-1.1505-8.6568-1.7859-13.078-2.3438-2.6875-0.39453-2.6875-0.39453-4.6875-1.3945l-1.9375 1c-2.0625 1-2.0625 1-5.0625 0 0.50338-0.26627 1.0068-0.53254 1.5254-0.80688 12.372-6.3639 12.372-6.3639 23.162-15.013 1.3125-1.1797 1.3125-1.1797 3.3125-1.1797 0.19336 0.78246 0.38672 1.5649 0.58594 2.3711 0.26039 1.0119 0.52078 2.0238 0.78906 3.0664 0.25523 1.0093 0.51047 2.0187 0.77344 3.0586 0.5773 2.6596 0.5773 2.6596 2.8516 3.5039-0.45053-1.1563-0.45053-1.1563-0.91016-2.3359-0.38027-1.0029-0.76055-2.0058-1.1523-3.0391-0.38285-0.99773-0.7657-1.9955-1.1602-3.0234-0.77734-2.6016-0.77734-2.6016 0.22266-4.6016l11 9v-2l5 2v-1c-2.43-2.2445-4.9279-4.405-7.4219-6.5781-2.5059-2.354-4.6424-4.5794-6.5781-7.4219 0.087326-5.5016 1.2309-9.1842 4-14l1 4 2-2h3l2 3c2.6556-3.8727 3-5.0201 3-10-3.96-0.66-7.92-1.32-12-2 3-2 3-2 5.1562-1.9336 6.3867 1.3518 6.3867 1.3518 8.9062 4.5586 0.30938 0.78375 0.61875 1.5675 0.9375 2.375l2.0625-2.0625c2.9375-1.9375 2.9375-1.9375 6.5625-1.8125 3.375 0.875 3.375 0.875 6.375 2.875 0.98515 2.6236 1.4224 5.2452 2 8l1.5625-1.0625c3.5108-1.3503 5.8162-0.82695 9.4375 0.0625 2.9375 1.6875 2.9375 1.6875 5 4 0.3125 3.25 0.3125 3.25 0 6l2.625 0.1875c4.5857 1.104 6.2548 2.2356 9.375 5.8125 0.08097 5.0201-1.0223 8.4473-3.168 12.992-1.732 4.1795-2.7161 8.6312-3.832 13.008-0.55348-2.0755-1-3.8437-1-6-0.47051 0.64969-0.94102 1.2994-1.4258 1.9688-0.62262 0.83531-1.2452 1.6706-1.8867 2.5312-0.92232 1.253-0.92232 1.253-1.8633 2.5312-0.90299 0.97453-0.90299 0.97453-1.8242 1.9688h-6v3c0.99-0.33 1.98-0.66 3-1 0.52336 0.56203 1.0467 1.1241 1.5859 1.7031 2.8087 2.6723 5.8622 4.8458 9.0391 7.0469 16.445 11.586 16.445 11.586 20.375 17.25 4.4127-1.6814 8.4605-3.8112 12.598-6.0742 2.722-1.049 3.7549-1.0774 6.4023 0.074219 4 4.3333 4 4.3333 4 7 0.94875-0.020625 1.8975-0.04125 2.875-0.0625 3.125 0.0625 3.125 0.0625 5.125 1.0625-1.2437-1.609-2.4953-3.212-3.75-4.8125-1.0441-1.34-1.0441-1.34-2.1094-2.707-1.9527-2.2627-3.5781-3.9581-6.1406-5.4805-4.7082 0.077184-7.7535 0.65834-11.75 3.125-3.25 1.875-3.25 1.875-5.2341 1.6311-2.0919-0.78463-3.6901-1.7007-5.5198-2.9788-0.65355-0.4527-1.3071-0.90541-1.9805-1.3718-1.0287-0.72667-1.0287-0.72667-2.0781-1.468-0.70512-0.49154-1.4102-0.98307-2.1367-1.4895-5.8226-4.0725-11.587-8.2235-17.301-12.448l2-4 1 4h2v2c0.66258 0.20109 1.3252 0.40219 2.0078 0.60938 2.6787 1.2449 4.4625 2.4469 6.7344 4.2812 1.0113 0.81598 1.0113 0.81598 2.043 1.6484 1.3963 1.1431 2.7818 2.2995 4.1562 3.4688 0.67676 0.53883 1.3535 1.0777 2.0508 1.6328 0.60183 0.50048 1.2037 1.001 1.8237 1.5166 2.9409 1.3868 2.9409 1.3868 9.1841-1.1572l1-32 3-1c-0.99-0.33-1.98-0.66-3-1v-8h10v40l5 2c2.1328 1.8047 2.1328 1.8047 4.125 3.875 0.66258 0.67805 1.3252 1.3561 2.0078 2.0547 4.8672 5.3967 4.8672 5.3967 4.8672 8.0703 12.503 0.46723 21.38-3.3414 32.267-9.1897 1.7332-0.8103 1.7332-0.8103 3.7332-0.8103v-25h4v-7c3.1458-0.028885 6.2916-0.046759 9.4375-0.0625 1.3467-0.012568 1.3467-0.012568 2.7207-0.025391 0.854-0.0032227 1.708-0.0064453 2.5879-0.0097656 0.79076-0.0052368 1.5815-0.010474 2.3962-0.015869 1.8577 0.11353 1.8577 0.11353 2.8577 1.1135 0.040929 2.333 0.042417 4.6671 0 7 1.3903-0.017402 1.3903-0.017402 2.8086-0.035156 1.1975-0.0090234 2.3951-0.018047 3.6289-0.027344 1.195-0.011602 2.3899-0.023203 3.6211-0.035156 2.9414 0.097656 2.9414 0.097656 3.9414 1.0977 0.088438 2.4483 0.11529 4.8682 0.097656 7.3164-0.0021224 1.0966-0.0021224 1.0966-0.0042877 2.2153-0.0056144 2.3436-0.018169 4.6872-0.030869 7.0308-0.0050131 1.5853-0.0095764 3.1706-0.013672 4.7559-0.011048 3.8939-0.028322 7.7878-0.048828 11.682 0.73501-0.16226 1.47-0.32452 2.2273-0.4917 2.4589-0.45078 4.6453-0.63721 7.136-0.64111 1.2075-0.0019336 1.2075-0.0019336 2.4395-0.0039062 1.2423 0.0058008 1.2423 0.0058008 2.5098 0.011719 1.2249-0.0058008 1.2249-0.0058008 2.4746-0.011719 5.1585 0.0082207 10.107 0.39647 15.213 1.1367v4h-2v6h13v-25h14v-4h6v-97h-205v-2h207v148h-460v-148z"
     fill="#1E3249"
     id="path6" />
  <path
     transform="translate(317,2)"
     d="m0 0h141v97h-6v4h-14v25h-13v-6h2v-4h-32l-1-33-13-1-1-7-19-1v7h-4v25c-25.337 13.248-25.337 13.248-36 10-2.4386-2.0065-3.87-3.912-5.5117-6.6016-2.4987-4.0269-6.2436-7.2761-10.488-9.3984v-40h-10v8l4 1-4 1v32c-6 3-6 3-7.9258 2.4922-0.68449-0.49242-1.369-0.98484-2.0742-1.4922-0.529-0.34644-1.058-0.69287-1.603-1.0498-1.8877-1.2402-3.736-2.5273-5.5845-3.8252-0.64131-0.43441-1.2826-0.86883-1.9434-1.3164-4.6021-3.2365-4.6021-3.2365-5.7163-5.6233-0.21941-3.1373 0.90619-4.8988 2.3823-7.658 0.56268-1.0654 1.1254-2.1308 1.7051-3.2285 0.60135-1.1092 1.2027-2.2185 1.8223-3.3613 0.57428-1.0822 1.1486-2.1643 1.7402-3.2793 2.2846-4.2937 4.5879-8.5736 6.9702-12.814 0.54801-0.97856 1.096-1.9571 1.6606-2.9653 0.74141-1.3041 0.74141-1.3041 1.4978-2.6345 1.2835-2.2815 1.2835-2.2815 1.0686-5.2444 0.56985-0.55341 1.1397-1.1068 1.7268-1.677 3.0591-3.1261 4.7043-6.6012 6.6443-10.491 0.40421-0.79425 0.80841-1.5885 1.2249-2.4068 1.2879-2.5339 2.5651-5.073 3.8415-7.6127 1.275-2.5207 2.5522-5.0403 3.8308-7.5592 0.7929-1.5637 1.5834-3.1286 2.3709-4.695 2.6619-5.2729 5.4864-10.385 8.3607-15.558z"
     fill="#a6d09f"
     id="path8" />
  <path
     transform="translate(253)"
     d="m0 0h207v148c-49.783 0.080606-49.783 0.080606-70.592 0.097656-14.387 0.011883-28.773 0.025876-43.16 0.053223-10.476 0.019904-20.952 0.03283-31.428 0.037298-5.5496 0.0026125-11.099 0.0087734-16.649 0.023283-5.2193 0.013536-10.439 0.017771-15.658 0.014755-1.9193 5.5194e-4 -3.8386 0.0045529-5.7579 0.012196-2.6133 0.0098994-5.2264 0.0075763-7.8398 0.0020981-0.76556 0.0058257-1.5311 0.011651-2.3199 0.017654-3.75-0.021358-5.3926-0.12276-8.5957-2.2582l1-2c0.15379-1.9577 0.24971-3.9202 0.31641-5.8828 0.041895-1.1666 0.083789-2.3332 0.12695-3.5352 0.058975-1.835 0.058975-1.835 0.11914-3.707 0.043184-1.2311 0.086367-2.4621 0.13086-3.7305 0.10633-3.0481 0.20836-6.0962 0.30664-9.1445l2-1c-3.1054-1.2108-3.1054-1.2108-7-1v2l-3 1c-1.1288-3.3111-2.213-6.5898-3-10h3c-0.5775-0.40992-1.155-0.81984-1.75-1.2422-0.7425-0.53883-1.485-1.0777-2.25-1.6328-0.7425-0.53367-1.485-1.0673-2.25-1.6172-0.5775-0.49758-1.155-0.99516-1.75-1.5078v-2c4.8224 0.51341 8.2243 2.8185 12.125 5.5 0.98698 0.66733 0.98698 0.66733 1.9939 1.3481 5.1004 3.4977 9.8804 7.2575 14.576 11.285 2.3637 2.0476 2.3637 2.0476 5.7422 3.6172 4.4087 3.8711 5.2835 9.6676 6.5625 15.25v2c0.99-0.33 1.98-0.66 3-1 3.2612-0.34659 6.5373-0.46581 9.8125-0.625 0.8901-0.051562 1.7802-0.10312 2.6973-0.15625 4.6625-0.23503 8.8948-0.23659 13.49 0.78125v-2c-0.61746-0.025781-1.2349-0.051562-1.8711-0.078125-6.2906-0.42129-11.68-1.6324-17.129-4.9219-1.6043-3.2085-1.4908-6.5194-1-10 1.4975-2.6568 2.8465-4.8465 5-7 6.9041-0.62764 13.345 1.3186 20 3-1.2437-1.609-2.4953-3.212-3.75-4.8125-0.69609-0.89332-1.3922-1.7866-2.1094-2.707-1.9527-2.2627-3.5781-3.9581-6.1406-5.4805-4.7082 0.077184-7.7535 0.65834-11.75 3.125-3.25 1.875-3.25 1.875-5.2341 1.6311-2.0919-0.78463-3.6901-1.7007-5.5198-2.9788-0.65355-0.4527-1.3071-0.90541-1.9805-1.3718-0.68578-0.48445-1.3716-0.96889-2.0781-1.468-0.70512-0.49154-1.4102-0.98307-2.1367-1.4895-5.8226-4.0725-11.587-8.2235-17.301-12.448l2-4 1 4h2v2c0.66258 0.20109 1.3252 0.40219 2.0078 0.60938 2.6787 1.2449 4.4625 2.4469 6.7344 4.2812 0.67418 0.54398 1.3484 1.088 2.043 1.6484 1.3963 1.1431 2.7818 2.2995 4.1562 3.4688 0.67676 0.53883 1.3535 1.0777 2.0508 1.6328 0.60183 0.50048 1.2037 1.001 1.8237 1.5166 2.9409 1.3868 2.9409 1.3868 9.1841-1.1572l1-32c0.99-0.33 1.98-0.66 3-1-0.99-0.33-1.98-0.66-3-1v-8h10v40l5 2c2.1328 1.8047 2.1328 1.8047 4.125 3.875 0.66258 0.67805 1.3252 1.3561 2.0078 2.0547 4.8672 5.3967 4.8672 5.3967 4.8672 8.0703 12.503 0.46723 21.38-3.3414 32.267-9.1897 1.7332-0.8103 1.7332-0.8103 3.7332-0.8103v-25h4v-7c3.1458-0.028885 6.2916-0.046759 9.4375-0.0625 1.3467-0.012568 1.3467-0.012568 2.7207-0.025391 0.854-0.0032227 1.708-0.0064453 2.5879-0.0097656 0.79076-0.0052368 1.5815-0.010474 2.3962-0.015869 1.8577 0.11353 1.8577 0.11353 2.8577 1.1135 0.040929 2.333 0.042417 4.6671 0 7 1.3903-0.017402 1.3903-0.017402 2.8086-0.035156 1.1975-0.0090234 2.3951-0.018047 3.6289-0.027344 1.195-0.011602 2.3899-0.023203 3.6211-0.035156 2.9414 0.097656 2.9414 0.097656 3.9414 1.0977 0.088438 2.4483 0.11529 4.8682 0.097656 7.3164-0.0021224 1.0966-0.0021224 1.0966-0.0042877 2.2153-0.0056144 2.3436-0.018169 4.6872-0.030869 7.0308-0.0050131 1.5853-0.0095764 3.1706-0.013672 4.7559-0.011048 3.8939-0.028322 7.7878-0.048828 11.682 0.73501-0.16226 1.47-0.32452 2.2273-0.4917 2.4589-0.45078 4.6453-0.63721 7.136-0.64111 1.2075-0.0019336 1.2075-0.0019336 2.4395-0.0039062 1.2423 0.0058008 1.2423 0.0058008 2.5098 0.011719 1.2249-0.0058008 1.2249-0.0058008 2.4746-0.011719 5.1585 0.0082207 10.107 0.39647 15.213 1.1367v4h-2v6h13v-25h14v-4h6v-97h-205v-2z"
     fill="#22364A"
     id="path10" />
  <g
     fill="#a6d09f"
     id="g18">
    <path
       transform="translate(250)"
       d="m 0,0 h 3 v 2 h 64 c -1.6128,4.032 -3.3634,7.8812 -5.3125,11.75 -0.50418,1.0022 -0.50418,1.0022 -1.0186,2.0247 C 59.4509,18.1857 58.2262,20.5932 57,23 c -0.52191,1.0259 -1.0438,2.0519 -1.5815,3.1089 -1.7155,3.3633 -3.4407,6.7216 -5.1685,10.079 -0.5547,1.087 -1.1094,2.174 -1.6809,3.2939 -0.7999,1.5464 -0.7999,1.5464 -1.616,3.124 -0.47276,0.91934 -0.94553,1.8387 -1.4326,2.7859 -1.6129,2.7672 -3.5161,5.1167 -5.5205,7.6086 -0.68007,1.9955 -1.3437,3.9966 -2,6 -1.8149,3.7825 -3.7854,7.4811 -5.75,11.188 -0.51305,0.97775 -1.0261,1.9555 -1.5547,2.9629 -3.4999,6.6524 -7.0786,13.26 -10.695,19.85 l -4,-1 v -2 h -2 l -1,-3 -1,3 c 1.1224,0.79301 2.2448,1.586 3.3672,2.3789 0.71648,0.50636 1.433,1.0127 2.1711,1.5344 1.5611,1.1018 3.1235,2.2019 4.687,3.3003 3.3557,2.3591 6.7074,4.7162 9.9895,7.177 0.85723,0.63422 1.7145,1.2684 2.5977,1.9219 0.72832,0.55301 1.4566,1.106 2.207,1.6758 1.9078,1.2007 1.9078,1.2007 3.9648,0.80859 2.9741,-1.1758 5.8272,-2.5535 8.6992,-3.957 2.6905,-0.97546 4.4753,-1.2085 7.3164,-0.83984 4.6828,3.0259 8.8579,7.4177 12,12 v 2 c -7.1099,-0.12051 -7.1099,-0.12051 -9.6445,-2.625 -1.2108,-1.7307 -2.2933,-3.5494 -3.3555,-5.375 -5.2399,0.73225 -8.9334,3.1865 -13.379,5.918 -2.6211,1.082 -2.6211,1.082 -4.7109,0.57031 -1.9102,-1.4883 -1.9102,-1.4883 -3.5742,-3.6719 -3.3568,-4.0473 -7.459,-6.8229 -11.711,-9.8789 -0.83789,-0.61166 -1.6758,-1.2233 -2.5391,-1.8535 -3.5119,-2.5539 -7.0205,-5.066 -10.688,-7.3926 -1.1872,-0.83725 -1.1872,-0.83725 -2.3984,-1.6914 v -2 l -4,2 1,-4 -3,-1 c 2,-1 2,-1 3.875,-0.5 2.5474,0.59939 3.6833,0.42602 6.125,-0.5 1.7685,-1.8354 1.7685,-1.8354 3.25,-4.0625 0.52078,-0.73348 1.0416,-1.467 1.5781,-2.2227 0.38672,-0.5659 0.77344,-1.1318 1.1719,-1.7148 l 1,4 c 0.26555,-0.88043 0.53109,-1.7609 0.80469,-2.668 0.3532,-1.1614 0.70641,-2.3229 1.0703,-3.5195 0.34805,-1.1486 0.69609,-2.2971 1.0547,-3.4805 0.91271,-2.8414 1.9623,-5.5644 3.0703,-8.332 0.58351,-2.5429 0.58351,-2.5429 0,-5 -2.634,-2.7115 -4.5134,-3.876 -8.1875,-4.8125 l -2.8125,-1.1875 c -0.67785,-2.3301 -1.3442,-4.6636 -2,-7 -3.3304,-2.4221 -5.0778,-3.0904 -9.1875,-2.6875 -0.92812,0.22688 -1.8562,0.45375 -2.8125,0.6875 h -3 l -1,-8 c -5.9827,-1.9478 -5.9827,-1.9478 -12,-1.2422 -1.8178,1.1989 -1.8178,1.1989 -4,3.2422 l -0.4375,-2.375 c -1.2779,-2.7766 -1.2779,-2.7766 -3.6992,-3.4023 -2.2718,-0.4886 -4.5677,-0.86192 -6.8633,-1.2227 2.97,0.99 5.94,1.98 9,3 0.75,2.125 0.75,2.125 1,5 -1.9375,3.3125 -1.9375,3.3125 -4,6 l -3,-3 -5,2 v -3 l -1.5,3.1875 c -0.27844,0.59168 -0.55688,1.1834 -0.84375,1.793 -0.84845,2.611 -1.0585,4.282 -0.65625,7.0195 1.9666,2.8308 1.9666,2.8308 4.625,5.5 0.9075,0.9552 1.815,1.9104 2.75,2.8945 2.7639,2.7433 5.5321,5.2451 8.625,7.6055 -3,0 -3,0 -6,-1 h -3 c -3.5029,-2.4713 -6.7,-5.2571 -10,-8 l 4,13 c -4,-2 -4,-2 -5.25,-5.375 -0.75,-3.625 -0.75,-3.625 -0.75,-7.625 -0.70383,0.55688 -1.4077,1.1138 -2.1328,1.6875 -7.5944,5.8693 -15.437,10.736 -23.867,15.312 l 2.25,-1.0625 c 3.0526,-1.0407 3.7893,-0.92989 6.75,0.0625 1.0467,0.20238 2.0934,0.40477 3.1719,0.61328 11.578,2.2625 19.801,5.4434 27.828,14.387 6,9.1294 6,9.1294 6,13 h -2 c -1.2617,-1.7227 -1.2617,-1.7227 -2.6875,-4.0625 -3.7665,-5.8385 -7.8752,-11.028 -14.312,-13.938 l 2,3 -5,-2 11,11 -1,2 c -0.69867,-0.64969 -1.3973,-1.2994 -2.1172,-1.9688 -1.3651,-1.253 -1.3651,-1.253 -2.7578,-2.5312 -1.3574,-1.253 -1.3574,-1.253 -2.7422,-2.5312 -2.1246,-2.1811 -2.1246,-2.1811 -4.3828,-1.9688 l 1.8125,1.6875 c 2.1961,2.3216 3.7598,4.4571 5.1875,7.3125 l -1,2 -8,-9 c 0.77537,1.1563 0.77537,1.1563 1.5664,2.3359 0.65871,1.0029 1.3174,2.0058 1.9961,3.0391 0.66129,0.99773 1.3226,1.9955 2.0039,3.0234 0.47309,0.85852 0.94617,1.717 1.4336,2.6016 l -1,2 c -0.63809,-0.71027 -1.2762,-1.4205 -1.9336,-2.1523 -0.82629,-0.9191 -1.6526,-1.8382 -2.5039,-2.7852 -0.82371,-0.91652 -1.6474,-1.833 -2.4961,-2.7773 -1.5059,-1.6685 -1.5059,-1.6685 -3.0664,-3.2852 l 1.5625,2.375 c 0.47438,0.86625 0.94875,1.7325 1.4375,2.625 l -1,2 c -0.61488,-0.79406 -1.2298,-1.5881 -1.8633,-2.4062 -1.2124,-1.5314 -1.2124,-1.5314 -2.4492,-3.0938 -1.2008,-1.5314 -1.2008,-1.5314 -2.4258,-3.0938 -0.74637,-0.79406 -1.4927,-1.5881 -2.2617,-2.4062 h -3 c -1.3398,-0.30624 -2.6751,-0.63452 -4,-1 4.691,7.5789 9.6734,14.855 15,22 0.60715,0.81469 1.2143,1.6294 1.8398,2.4688 1.3822,1.8472 2.7683,3.6913 4.1602,5.5312 -4.797,-1.3916 -7.2758,-4.1693 -10.312,-7.9375 -0.47929,-0.57903 -0.95858,-1.1581 -1.4524,-1.7546 -3.6491,-4.4548 -7.0016,-9.092 -10.305,-13.808 -1.9771,-2.5614 -4.1066,-4.6332 -6.4922,-6.8125 -3.4132,-3.2995 -3.4132,-3.2995 -3.625,-6.6875 0.39188,-0.99 0.78375,-1.98 1.1875,-3 0.16637,-0.61617 0.33274,-1.2323 0.50415,-1.8672 1.512,-5.115 3.4005,-7.3358 7.9934,-9.9868 0.70206,-0.37818 1.4041,-0.75636 2.1274,-1.146 5.8591,-3.3784 10.905,-6.846 15.773,-11.602 1.6016,-1.3984 1.6016,-1.3984 3.6016,-1.3984 -3.5136,-3.8405 -7.5427,-6.641 -11.812,-9.5625 -0.68643,-0.48146 -1.3729,-0.96293 -2.0801,-1.459 -3.261,-2.2429 -6.3925,-4.2061 -10.061,-5.7129 -3.0469,-1.2656 -3.0469,-1.2656 -3.9844,-2.9531 -0.0625,-2.3125 -0.0625,-2.3125 0.1875,-6.0625 0.11365,-5.0384 -2.3273,-8.3253 -5.25,-12.25 -0.68062,0.12117 -1.3612,0.24234 -2.0625,0.36719 -8.6166,1.4896 -17.257,2.5974 -25.938,3.6328 1,-3 1,-3 3.0625,-4.1875 l 1.9375,-0.8125 c -1.0795,-2.8233 -2.2503,-5.491 -3.625,-8.1875 -1.375,-2.8125 -1.375,-2.8125 -1.375,-4.8125 h 107 v -2 z"
       id="path12" />
    <path
       transform="translate(85,2)"
       d="m 0,0 h 58 c 1.98,3.63 3.96,7.26 6,11 -1.133,3.3991 -2.1252,4.0525 -5,6 9.035,-1.1602 18.026,-2.4291 27,-4 4.218,5.0616 6.2841,8.0685 6.125,14.75 -0.01805,0.98484 -0.03609,1.9697 -0.05469,2.9844 C 92.047109,31.48206 92.023906,32.2297 92,33 c 0.54785,0.23332 1.0957,0.46664 1.6602,0.70703 6.7489,3.1056 12.465,7.1385 18.336,11.634 3.1467,2.7157 3.1467,2.7157 7.0037,3.6589 v 3 c -1.8359,1.7969 -1.8359,1.7969 -4.375,3.75 -0.90879,0.69996 -1.8176,1.3999 -2.7539,2.1211 -4.2282,3.1352 -8.4852,6.2172 -12.871,9.1289 -0.83918,0.56074 -1.6784,1.1215 -2.543,1.6992 C 94,69.99993 94,69.99993 90,69.99993 c -2.5182,7.9336 -2.5182,7.9336 -2,16 1.8731,2.2966 3.9612,4.1848 6.1602,6.1719 4.2866,4.047 7.6094,8.9558 11.057,13.713 2.6539,3.5922 4.9862,6.3508 8.6536,8.9241 2.3116,1.8793 3.0369,2.7712 3.6816,5.7166 0.13575,2.9807 0.0596,5.8715 -0.11523,8.8499 -0.0316,1.0222 -0.0632,2.0445 -0.0957,3.0977 -0.0822,2.5121 -0.19695,5.0182 -0.3418,7.5273 -1.9663,-1.2761 -1.9663,-1.2761 -4,-3 -0.40883,-2.7166 -0.60528,-5.0929 -0.625,-7.8125 -0.096,-9.1873 -0.096,-9.1873 -4.8711,-16.707 -0.97066,-0.75668 -1.9413,-1.5134 -2.9414,-2.293 -0.96809,-0.76957 -1.9362,-1.5391 -2.9336,-2.332 -2.550703,-1.9898 -2.550703,-1.9898 -5.628903,-2.8555 l -1,4 c -5.269,-5.6432 -10.493,-11.275 -15.312,-17.312 -3.698,-4.6009 -7.6347,-8.9025 -11.688,-13.188 -4.8299,-5.1066 -9.3947,-10.318 -13.785,-15.812 -3.3925,-4.1165 -7.0273,-7.9991 -10.652,-11.91 -2.6681,-2.8918 -5.263,-5.8358 -7.8398,-8.8086 -1.9442,-2.222 -3.926,-4.4073 -5.9102,-6.5938 -4.1822,-4.6303 -8.2384,-9.3588 -12.28,-14.112 -4.0407,-4.7349 -8.2143,-9.3214 -12.474,-13.861 -2.0586,-2.4023 -2.0586,-2.4023 -5.0586,-7.4023 z"
       id="path14" />
    <path
       transform="translate(458,32)"
       d="m 0,0 v 67 h -6 v 4 h -14 v 25 h -13 v -6 h 2 v -4 h -32 l -1,-33 -13,-1 c -0.99612,-4.1891 -0.99612,-4.1891 0,-7 3.492,-3.0548 7.5066,-5.153 11.562,-7.375 2.1681,-1.2367 4.3361,-2.4737 6.5039,-3.7109 1.1278,-0.63253 2.2555,-1.2651 3.4175,-1.9167 4.9255,-2.7781 9.7542,-5.7163 14.596,-8.637 4.0814,-2.4618 8.179,-4.8956 12.28,-7.3252 0.69134,-0.40986 1.3827,-0.81972 2.095,-1.242 2.8234,-1.6737 5.6472,-3.3467 8.4715,-5.019 2.1033,-1.2456 4.206,-2.4923 6.3086,-3.739 0.63742,-0.37705 1.2748,-0.75409 1.9316,-1.1426 C -1.5863,0 -1.5863,0 10e-5,0 Z"
       id="path16" />
  </g>
  <path
     transform="translate(0)"
     d="m0 0h250v2h-248v67h32v52l10-4c4.9717-1.755 9.982-3.383 15-5 1.5063-0.48727 1.5063-0.48727 3.043-0.98438 3.9295-1.2305 6.7846-2.0156 10.957-2.0156v12l2 1c-1.3333 0.33333-2.6667 0.66667-4 1l-2.125 0.5625c-1.875 0.4375-1.875 0.4375-3.875 0.4375v2l-5 1v-2h-14v16l16-1-1 2 2 2-1 4h-62v-148z"
     fill="#1E334A"
     id="path20" />
  <path
     transform="translate(317,2)"
     d="m0 0h58c-2.8614 4.2921-5.3641 7.6714-8.8125 11.375-2.9536 3.1997-5.8953 6.3992-8.75 9.6875-2.6145 3.0082-5.267 5.9788-7.9375 8.9375-3.267 3.6202-6.4952 7.2698-9.6953 10.949-2.0343 2.3117-4.1069 4.5861-6.1797 6.8633-3.0914 3.4198-6.0496 6.9071-8.9375 10.5-6.1408 7.5921-12.784 14.784-19.688 21.688v-20h-10v8l4 1-4 1v32c-6 3-6 3-7.9258 2.4922-0.68449-0.49242-1.369-0.98484-2.0742-1.4922-0.529-0.34644-1.058-0.69287-1.603-1.0498-1.8877-1.2402-3.736-2.5273-5.5845-3.8252-0.64131-0.43441-1.2826-0.86883-1.9434-1.3164-4.6021-3.2365-4.6021-3.2365-5.7163-5.6233-0.21941-3.1373 0.90619-4.8988 2.3823-7.658 0.56268-1.0654 1.1254-2.1308 1.7051-3.2285 0.60135-1.1092 1.2027-2.2185 1.8223-3.3613 0.57428-1.0822 1.1486-2.1643 1.7402-3.2793 2.2846-4.2937 4.5879-8.5736 6.9702-12.814 0.54801-0.97856 1.096-1.9571 1.6606-2.9653 0.74141-1.3041 0.74141-1.3041 1.4978-2.6345 1.2835-2.2815 1.2835-2.2815 1.0686-5.2444 0.56985-0.55341 1.1397-1.1068 1.7268-1.677 3.0591-3.1261 4.7043-6.6012 6.6443-10.491 0.40421-0.79425 0.80841-1.5885 1.2249-2.4068 1.2879-2.5339 2.5651-5.073 3.8415-7.6127 1.275-2.5207 2.5522-5.0403 3.8308-7.5592 0.7929-1.5637 1.5834-3.1286 2.3709-4.695 2.6619-5.2729 5.4864-10.385 8.3607-15.558z"
     fill="#a6d09f"
     id="path22" />
  <path
     transform="translate(295,62)"
     d="m0 0h10v40l5 2c2.0977 1.7344 2.0977 1.7344 4.0625 3.75 0.65098 0.65484 1.302 1.3097 1.9727 1.9844 1.9648 2.2656 1.9648 2.2656 3.5984 5.3569 2.1403 3.2495 2.1403 3.2495 5.9417 3.6816 1.4171 0.040754 2.8354 0.049567 4.2529 0.031738 0.74901 0.013706 1.498 0.027413 2.2697 0.041534 2.3847 0.037294 4.7672 0.033586 7.1522 0.028778 1.6198 0.018128 3.2396 0.03893 4.8594 0.0625 3.9648 0.056872 7.9241 0.058253 11.891 0.0625v24h2l1-2v5h5l-1 2c-13.247 0.046282-26.495 0.081848-39.742 0.10362-6.1509 0.01045-12.302 0.024631-18.453 0.047255-5.9327 0.021685-11.865 0.033681-17.798 0.038876-2.2667 0.0037035-4.5334 0.010935-6.8 0.021706-3.1678 0.014458-6.3355 0.01652-9.5033 0.015591-1.4145 0.010786-1.4145 0.010786-2.8575 0.02179-0.86237-0.0027493-1.7247-0.0054987-2.6132-0.0083313-0.74942 0.0018436-1.4988 0.0036872-2.271 0.0055866-1.9621-0.2461-1.9621-0.2461-4.9621-2.2461l1-2c0.15379-1.9577 0.24971-3.9202 0.31641-5.8828 0.041895-1.1666 0.083789-2.3332 0.12695-3.5352 0.039316-1.2233 0.078633-2.4466 0.11914-3.707 0.043184-1.2311 0.086367-2.4621 0.13086-3.7305 0.10633-3.0481 0.20836-6.0962 0.30664-9.1445l2-1c-3.1054-1.2108-3.1054-1.2108-7-1v2l-3 1c-1.1288-3.3111-2.213-6.5898-3-10h3c-0.5775-0.40992-1.155-0.81984-1.75-1.2422-0.7425-0.53883-1.485-1.0777-2.25-1.6328-0.7425-0.53367-1.485-1.0673-2.25-1.6172-0.5775-0.49758-1.155-0.99516-1.75-1.5078v-2c4.8224 0.51341 8.2243 2.8185 12.125 5.5 0.65799 0.44489 1.316 0.88978 1.9939 1.3481 5.1004 3.4977 9.8804 7.2575 14.576 11.285 2.3637 2.0476 2.3637 2.0476 5.7422 3.6172 4.4087 3.8711 5.2835 9.6676 6.5625 15.25v2c0.99-0.33 1.98-0.66 3-1 3.2612-0.34659 6.5373-0.46581 9.8125-0.625 0.8901-0.051562 1.7802-0.10312 2.6973-0.15625 4.6625-0.23503 8.8948-0.23659 13.49 0.78125v-2c-0.61746-0.025781-1.2349-0.051562-1.8711-0.078125-6.2906-0.42129-11.68-1.6324-17.129-4.9219-1.6043-3.2085-1.4908-6.5194-1-10 1.4975-2.6568 2.8465-4.8465 5-7 6.9041-0.62764 13.345 1.3186 20 3-1.2437-1.609-2.4953-3.212-3.75-4.8125-1.0441-1.34-1.0441-1.34-2.1094-2.707-1.9527-2.2627-3.5781-3.9581-6.1406-5.4805-4.7082 0.077184-7.7535 0.65834-11.75 3.125-3.25 1.875-3.25 1.875-5.2341 1.6311-2.0919-0.78463-3.6901-1.7007-5.5198-2.9788-0.65355-0.4527-1.3071-0.90541-1.9805-1.3718-0.68578-0.48445-1.3716-0.96889-2.0781-1.468-0.70512-0.49154-1.4102-0.98307-2.1367-1.4895-5.8226-4.0725-11.587-8.2235-17.301-12.448l2-4 1 4h2v2c0.66258 0.20109 1.3252 0.40219 2.0078 0.60938 2.6787 1.2449 4.4625 2.4469 6.7344 4.2812 1.0113 0.81598 1.0113 0.81598 2.043 1.6484 1.3963 1.1431 2.7818 2.2995 4.1562 3.4688 0.67676 0.53883 1.3535 1.0777 2.0508 1.6328 0.60183 0.50048 1.2037 1.001 1.8237 1.5166 2.9409 1.3868 2.9409 1.3868 9.1841-1.1572l1-32c0.99-0.33 1.98-0.66 3-1-0.99-0.33-1.98-0.66-3-1v-8z"
     fill="#1F3248"
     id="path24" />
  <path
     transform="translate(47,2)"
     d="m0 0c5.2283-0.2741 10.452-0.47247 15.686-0.60425 1.7755-0.05497 3.5505-0.12978 5.3242-0.22559 15.541-0.81771 15.541-0.81771 20.329 3.1934 2.5116 2.7602 4.6006 5.531 6.6606 8.6365 1.1031 1.2899 2.2233 2.5658 3.375 3.8125 2.118 2.4305 4.2142 4.8785 6.3008 7.3359 5.0629 5.9537 10.173 11.83 15.512 17.539 4.3904 4.6951 8.5003 9.541 12.527 14.555 3.4246 4.1329 7.075 8.0452 10.723 11.98 2.6644 2.8877 5.2563 5.827 7.8281 8.7969 2.007 2.2918 4.0584 4.5404 6.1094 6.793 3.9249 4.3433 7.6311 8.8244 11.273 13.406 2.336 2.8532 2.336 2.8532 5.1406 5.5 6.9329 6.7962 6.9329 6.7962 7.8398 11.641-0.0034632 2.9506-0.17146 5.7282-0.62891 8.6406-6.0928-4.3229-11.502-9.1326-16.875-14.312-1.4954-1.4357-2.9927-2.8694-4.4922-4.3008-0.65082-0.62689-1.3016-1.2538-1.9722-1.8997-1.606-1.5695-1.606-1.5695-3.6606-2.4871v-2c-0.79664-0.31904-0.79664-0.31904-1.6094-0.64453-3.3121-1.8779-5.9-4.4359-8.6406-7.043-1.1698-1.0971-2.3404-2.1935-3.5117-3.2891-0.56123-0.52626-1.1225-1.0525-1.7007-1.5947-1.8334-1.7035-3.7056-3.356-5.6001-4.9912-3.3717-2.9155-6.6589-5.9183-9.9375-8.9375-3.9586-3.6442-7.9518-7.2391-12.016-10.766-4.0381-3.5294-8.0035-7.1407-11.984-10.734-2.5044-2.2548-5.0096-4.5087-7.5156-6.7617-1.6177-1.4575-3.2325-2.9182-4.8438-4.3828-4.8703-4.4167-9.818-8.7242-14.828-12.98-4.2499-3.614-8.3577-7.263-12.227-11.289-2.4603-2.4603-5.1236-4.6765-7.7891-6.9102-1.8753-1.7489-3.2852-3.6112-4.7969-5.6758z"
     fill="#FBE5AE"
     id="path26" />
  <path
     transform="translate(269,62)"
     d="m0 0 1 3 1-2h3c-0.68537 4.9945-2.0202 9.5968-3.5625 14.375-0.35095 1.1041-0.35095 1.1041-0.70898 2.2305-0.57252 1.7993-1.15 3.5971-1.7285 5.3945-0.55348-2.0755-1-3.8437-1-6-0.47051 0.64969-0.94102 1.2994-1.4258 1.9688-0.62262 0.83531-1.2452 1.6706-1.8867 2.5312-0.61488 0.83531-1.2298 1.6706-1.8633 2.5312-0.60199 0.64969-1.204 1.2994-1.8242 1.9688h-6v3c0.99-0.33 1.98-0.66 3-1 0.78504 0.84305 0.78504 0.84305 1.5859 1.7031 2.8087 2.6723 5.8622 4.8458 9.0391 7.0469 16.445 11.586 16.445 11.586 20.375 17.25 4.4127-1.6814 8.4605-3.8112 12.598-6.0742 2.4023-0.92578 2.4023-0.92578 4.5703-0.76172 3.0253 1.3804 4.1786 4.0605 5.832 6.8359-0.81984-0.069609-1.6397-0.13922-2.4844-0.21094-3.2536-0.16346-6.2815-0.19333-9.5156 0.21094-3.409 3.0991-4.1983 5.7248-4.4375 10.188 0.13101 3.5864 0.13101 3.5864 1.4531 5.4141 3.0758 2.1676 6.5575 2.7747 10.172 3.5859 0.74959 0.17725 1.4992 0.35449 2.2715 0.53711 1.8448 0.43475 3.6926 0.85636 5.541 1.2754v2c-0.55945-0.011602-1.1189-0.023203-1.6953-0.035156-12.839-0.33717-12.839-0.33717-25.305 2.0352-3.2936-2.6056-3.6736-5.2478-4.5625-9.25-2.2247-7.6384-5.8483-9.846-12.438-13.75-1.6469-1.285-3.272-2.5982-4.875-3.9375-9.6446-8.3166-9.6446-8.3166-21.125-13.062l9 9-4-1c0.47438 0.7425 0.94875 1.485 1.4375 2.25 1.3412 2.3605 2.0748 4.1165 2.5625 6.75h2v-2c2.97-0.495 2.97-0.495 6-1l2 3h-3v2.355 25.645l1 2h-40c1-5 1-5 3-7v2h3v-9l4-1c1.6036 3.5078 2.2204 6.1435 2 10h2v-16l4-1v-2l-2-1v-2h3l-3-6 1-1-3-3-1 2c-2.3053 1.3064-4.4757 2.1586-7 3 2-5 2-5 3.1875-7.4375 1.2736-4.0169 0.4417-7.156-1.25-10.938-0.30938-0.53625-0.61875-1.0725-0.9375-1.625 6.7046 3.9562 6.7046 3.9562 7.9375 8.3125l0.0625 2.6875c1.8266-4.1215 1.8266-4.1215 1.125-8.375-0.37125-0.53625-0.7425-1.0725-1.125-1.625l6 4 2-2-1-3 1-1-3-3 2-5h-1-2v-4l-3 2v-2h-2l-0.3125 1.9375-0.6875 2.0625c-0.99 0.33-1.98 0.66-3 1 0.73268-4.5812 2.3577-7.8346 4.7109-11.785 1.4292-2.3503 1.4292-2.3503 2.7266-5.5898 4.3765-4.4833 10.541-4.7073 16.562-5.625 1.3283 3.9849 0.23204 5.4005-1.4375 9.1875-0.47309 1.0867-0.94617 2.1734-1.4336 3.293-0.37254 0.83145-0.74508 1.6629-1.1289 2.5195 0.74057-1.5894 0.74057-1.5894 1.4961-3.2109 0.64712-1.388 1.2943-2.776 1.9414-4.1641 0.32549-0.69867 0.65098-1.3973 0.98633-2.1172 2.4629-5.2812 2.4629-5.2812 3.5762-7.5078h4c1.75 2 1.75 2 3 4 0.99-1.65 1.98-3.3 3-5z"
     fill="#1F3349"
     id="path28" />
  <path
     transform="translate(2,32)"
     d="m0 0c4.1046 1.6418 7.5222 3.368 11.305 5.5977 0.59591 0.35008 1.1918 0.70015 1.8058 1.0608 1.9235 1.1313 3.8441 2.2675 5.7645 3.404 1.33 0.78377 2.6602 1.5673 3.9905 2.3506 7.4845 4.4109 14.953 8.8479 22.388 13.341 3.0578 1.8419 6.1328 3.6533 9.2109 5.4609 1.4629 0.85997 1.4629 0.85997 2.9553 1.7373 1.9094 1.1213 3.8199 2.2406 5.7319 3.3574 4.1911 2.4629 8.3096 4.9677 12.324 7.71 4.0427 2.7372 8.24 5.0404 12.542 7.3418 5.6481 3.1043 11.113 6.5203 16.606 9.8887 2.4664 1.5083 4.934 3.0145 7.4023 4.5195 0.60091 0.3665 1.2018 0.733 1.8209 1.1106 5.7618 3.5062 11.577 6.9197 17.441 10.252 4.6034 2.6541 4.6034 2.6541 5.7104 4.8682-11.98 4.9669-11.98 4.9669-18.914 2.25-1.7126-0.70961-3.4018-1.4753-5.0859-2.25v-5c-1.1447 0.24621-2.2894 0.49242-3.4688 0.74609-5.2031 0.65038-8.5762-1.188-13.031-3.6836-1.0905-0.57911-1.0905-0.57911-2.2031-1.1699-1.7754-0.9461-3.5376-1.9169-5.2969-2.8926v-10h-10v4c-4.7501-0.57823-8.4797-1.9426-12.797-3.9844-0.63367-0.29747-1.2673-0.59494-1.9202-0.90143-2.0143-0.94782-4.0235-1.9059-6.0329-2.8642-1.333-0.62826-2.6664-1.2559-4-1.8828-7.1308-3.361-14.221-6.7967-21.25-10.367v-8l-3.1562 0.28125c-12.217 0.73477-19.239-2.167-29.844-8.2812v-28z"
     fill="#FAE5AD"
     id="path30" />
  <path
     transform="translate(394.94 1.5)"
     d="m0 0c1.8469 0.040161 3.6939 0.076657 5.541 0.10938 4.5092 0.087832 9.0144 0.22568 13.521 0.39062-4.1928 4.214-8.4752 8.3111-12.812 12.375-0.67354 0.63422-1.3471 1.2684-2.041 1.9219-4.032 3.7812-8.1314 7.466-12.304 11.091-2.5344 2.2183-5.0001 4.507-7.467 6.7998-4.309 3.9828-8.7091 7.8343-13.188 11.625-5.8286 4.9396-11.434 10.084-16.997 15.321-3.6604 3.445-7.3609 6.818-11.171 10.097-2.7144 2.3784-5.3652 4.8247-8.0195 7.2695-3.9463 3.633-7.924 7.2206-11.98 10.73-3.384 2.9651-6.6955 6.0106-10.016 9.0469-2.0039 1.7227-2.0039 1.7227-3.0039 1.7227-1.9348-15.801-1.9348-15.801 2.3203-21.926 2.4841-3.035 5.226-5.7959 8.0591-8.5044 2.445-2.3684 4.6697-4.9024 6.9331-7.4448 0.80953-0.88301 1.6191-1.766 2.4531-2.6758 2.5284-2.7715 4.9962-5.5905 7.457-8.4219 2.0709-2.3622 4.1725-4.6953 6.2773-7.0273 3.267-3.6202 6.4952-7.2698 9.6953-10.949 2.0343-2.3117 4.1069-4.5861 6.1797-6.8633 3.9148-4.3342 7.6324-8.7983 11.289-13.352 1.1563-1.4038 1.1563-1.4038 2.3359-2.8359 0.55941-1.0388 0.55941-1.0388 1.1301-2.0986 5.7349-9.0548 16.361-6.7574 25.807-6.4014z"
     fill="#FBE6AD"
     id="path32" />
  <path
     transform="translate(220.16 30.066)"
     d="m0 0c6.3867 1.3518 6.3867 1.3518 8.9062 4.5586 0.30938 0.78375 0.61875 1.5675 0.9375 2.375l2.0625-2.0625c2.9375-1.9375 2.9375-1.9375 6.5625-1.8125 3.375 0.875 3.375 0.875 6.375 2.875 0.98515 2.6236 1.4224 5.2452 2 8l1.5625-1.0625c3.5108-1.3503 5.8162-0.82695 9.4375 0.0625 2.9375 1.6875 2.9375 1.6875 5 4 0.3125 3.25 0.3125 3.25 0 6l2.625 0.1875c4.4742 1.0771 6.1983 2.4846 9.375 5.8125 0.375 2.8125 0.375 2.8125 0 5l-4-1-1 3-1-3c-0.99 1.65-1.98 3.3-3 5l-2.375-1.9375c-2.4204-2.0439-2.4204-2.0439-4.625-3.0625-0.22688 0.76312-0.45375 1.5262-0.6875 2.3125-4.9929 14.028-4.9929 14.028-8.3125 15.688l5-15c-2.2752 0.36969-4.5452 0.77172-6.8125 1.1875-1.2646 0.22043-2.5291 0.44086-3.832 0.66797-3.4587 0.83348-3.4587 0.83348-5.1406 3.4727-0.4009 0.88172-0.8018 1.7634-1.2148 2.6719-0.44602 0.76441-0.89203 1.5288-1.3516 2.3164-0.42023 0.74121-0.84047 1.4824-1.2734 2.2461-0.42539 0.74379-0.85078 1.4876-1.2891 2.2539-1.0298 2.0708-1.6251 3.9257-2.0859 6.1836h2l1-4h4l2-1-1 5 5-3c-0.46406 0.80438-0.46406 0.80438-0.9375 1.625-1.2408 2.7735-1.6535 5.3754-2.0625 8.375 0.99 0.33 1.98 0.66 3 1l-1 2 1 3h-2l-1 2-5-4c0.39188 0.495 0.78375 0.99 1.1875 1.5 1.2723 3.9147-0.55059 6.8742-2.1875 10.5h-1c-0.0038672-0.90492-0.0038672-0.90492-0.0078125-1.8281-0.25537-5.5962-0.25537-5.5962-3.8672-9.7969-3.0676-1.7672-3.0676-1.7672-6.125-0.375-0.32871-0.56848-0.65742-1.137-0.99609-1.7227-6.0326-9.7927-12.829-14.523-23.902-17.57-3.7114-0.84605-7.3147-1.3498-11.102-1.707l-2-1-1.9375 1c-2.0625 1-2.0625 1-5.0625 0 0.75507-0.39941 0.75507-0.39941 1.5254-0.80688 12.372-6.3639 12.372-6.3639 23.162-15.013 1.3125-1.1797 1.3125-1.1797 3.3125-1.1797 0.19336 0.78246 0.38672 1.5649 0.58594 2.3711 0.26039 1.0119 0.52078 2.0238 0.78906 3.0664 0.25523 1.0093 0.51047 2.0187 0.77344 3.0586 0.5773 2.6596 0.5773 2.6596 2.8516 3.5039-0.30035-0.77086-0.6007-1.5417-0.91016-2.3359-0.38027-1.0029-0.76055-2.0058-1.1523-3.0391-0.38285-0.99773-0.7657-1.9955-1.1602-3.0234-0.77734-2.6016-0.77734-2.6016 0.22266-4.6016l11 9v-2l5 2v-1c-2.43-2.2445-4.9279-4.405-7.4219-6.5781-2.5059-2.354-4.6424-4.5794-6.5781-7.4219 0.087326-5.5016 1.2309-9.1842 4-14l1 4 2-2h3l2 3c2.6556-3.8727 3-5.0201 3-10-5.94-0.99-5.94-0.99-12-2 3-2 3-2 5.1562-1.9336z"
     fill="#27394D"
     id="path34" />
  <path
     transform="translate(143,2)"
     d="m0 0h28l4 10c2.2474 3.1584 2.2474 3.1584 4.6328 6.2109 3.583 4.6887 3.5588 8.0415 3.3672 13.789 0.52723 0.21785 1.0545 0.4357 1.5977 0.66016 3.3019 1.8415 6.0106 4.2973 8.8398 6.7773 3.6975 3.2379 7.2324 6.1749 11.562 8.5625 0.10312-0.5427 0.20625-1.0854 0.3125-1.6445 0.85743-2.9377 2.2024-5.3692 3.6875-8.043 0.53625-0.97324 1.0725-1.9465 1.625-2.9492 1.375-2.3633 1.375-2.3633 2.375-3.3633 5.228-0.26583 9.0712 0.028469 14 2 0.75 2.125 0.75 2.125 1 5-1.9375 3.3125-1.9375 3.3125-4 6l-3-3-5 2v-3l-1.5 3.1875c-0.27844 0.59168-0.55688 1.1834-0.84375 1.793-0.84845 2.611-1.0585 4.282-0.65625 7.0195 1.9666 2.8308 1.9666 2.8308 4.625 5.5 0.9075 0.9552 1.815 1.9104 2.75 2.8945 2.7639 2.7433 5.5321 5.2451 8.625 7.6055-3 0-3 0-6-1h-3c-3.5029-2.4713-6.7-5.2571-10-8l4 13c-4-2-4-2-5.25-5.375-0.75-3.625-0.75-3.625-0.75-7.625-0.70383 0.55688-1.4077 1.1138-2.1328 1.6875-7.5944 5.8693-15.437 10.736-23.867 15.312l2.25-1.0625c3.0526-1.0407 3.7893-0.92989 6.75 0.0625 1.0467 0.20238 2.0934 0.40477 3.1719 0.61328 11.578 2.2625 19.801 5.4434 27.828 14.387 6 9.1294 6 9.1294 6 13h-2c-1.2617-1.7227-1.2617-1.7227-2.6875-4.0625-3.7665-5.8385-7.8752-11.028-14.312-13.938l2 3-5-2 11 11-1 2c-0.69867-0.64969-1.3973-1.2994-2.1172-1.9688-1.3651-1.253-1.3651-1.253-2.7578-2.5312-1.3574-1.253-1.3574-1.253-2.7422-2.5312-2.1246-2.1811-2.1246-2.1811-4.3828-1.9688l1.8125 1.6875c2.1961 2.3216 3.7598 4.4571 5.1875 7.3125l-1 2-8-9c0.77537 1.1563 0.77537 1.1563 1.5664 2.3359 0.65871 1.0029 1.3174 2.0058 1.9961 3.0391 0.66129 0.99773 1.3226 1.9955 2.0039 3.0234 0.47309 0.85852 0.94617 1.717 1.4336 2.6016l-1 2c-0.63809-0.71027-1.2762-1.4205-1.9336-2.1523-0.82629-0.9191-1.6526-1.8382-2.5039-2.7852-0.82371-0.91652-1.6474-1.833-2.4961-2.7773-1.5059-1.6685-1.5059-1.6685-3.0664-3.2852l1.5625 2.375c0.47438 0.86625 0.94875 1.7325 1.4375 2.625l-1 2c-0.61488-0.79406-1.2298-1.5881-1.8633-2.4062-1.2124-1.5314-1.2124-1.5314-2.4492-3.0938-1.2008-1.5314-1.2008-1.5314-2.4258-3.0938-0.74637-0.79406-1.4927-1.5881-2.2617-2.4062h-3c-1.3398-0.30624-2.6751-0.63452-4-1 4.691 7.5789 9.6734 14.855 15 22 0.60715 0.81469 1.2143 1.6294 1.8398 2.4688 1.3822 1.8472 2.7683 3.6913 4.1602 5.5312-4.797-1.3916-7.2758-4.1693-10.312-7.9375-0.47929-0.57903-0.95858-1.1581-1.4524-1.7546-3.6491-4.4548-7.0016-9.092-10.305-13.808-1.9771-2.5614-4.1066-4.6332-6.4922-6.8125-3.4132-3.2995-3.4132-3.2995-3.625-6.6875 0.39188-0.99 0.78375-1.98 1.1875-3 0.16637-0.61617 0.33274-1.2323 0.50415-1.8672 1.512-5.115 3.4005-7.3358 7.9934-9.9868 0.70206-0.37818 1.4041-0.75636 2.1274-1.146 5.8591-3.3784 10.905-6.846 15.773-11.602 1.6016-1.3984 1.6016-1.3984 3.6016-1.3984-3.5136-3.8405-7.5427-6.641-11.812-9.5625-0.68643-0.48146-1.3729-0.96293-2.0801-1.459-3.261-2.2429-6.3925-4.2061-10.061-5.7129-3.0469-1.2656-3.0469-1.2656-3.9844-2.9531-0.0625-2.3125-0.0625-2.3125 0.1875-6.0625 0.11365-5.0384-2.3273-8.3253-5.25-12.25-0.68062 0.12117-1.3612 0.24234-2.0625 0.36719-8.6166 1.4896-17.257 2.5974-25.938 3.6328 1-3 1-3 3.0625-4.1875l1.9375-0.8125c-1.0795-2.8233-2.2503-5.491-3.625-8.1875-1.375-2.8125-1.375-2.8125-1.375-4.8125z"
     fill="#F3E3AC"
     id="path36" />
  <path
     transform="translate(289,2)"
     d="m0 0h28c-1.6128 4.032-3.3634 7.8812-5.3125 11.75-0.33612 0.66814-0.67225 1.3363-1.0186 2.0247-1.218 2.411-2.4427 4.8185-3.6689 7.2253-0.52191 1.0259-1.0438 2.0519-1.5815 3.1089-1.7155 3.3633-3.4407 6.7216-5.1685 10.079-0.5547 1.087-1.1094 2.174-1.6809 3.2939-0.53327 1.0309-1.0665 2.0619-1.616 3.124-0.47276 0.91934-0.94553 1.8387-1.4326 2.7859-1.6129 2.7672-3.5161 5.1167-5.5205 7.6086-0.68007 1.9955-1.3437 3.9966-2 6-1.8149 3.7825-3.7854 7.4811-5.75 11.188-0.51305 0.97775-1.0261 1.9555-1.5547 2.9629-3.4999 6.6524-7.0786 13.26-10.695 19.85l-4-1v-2h-2l-1-3-1 3c1.1224 0.79301 2.2448 1.586 3.3672 2.3789 0.71648 0.50636 1.433 1.0127 2.1711 1.5344 1.5611 1.1018 3.1235 2.2019 4.687 3.3003 3.3557 2.3591 6.7074 4.7162 9.9895 7.177 1.2858 0.95133 1.2858 0.95133 2.5977 1.9219 0.72832 0.55301 1.4566 1.106 2.207 1.6758 1.9078 1.2007 1.9078 1.2007 3.9648 0.80859 2.9741-1.1758 5.8272-2.5535 8.6992-3.957 2.6905-0.97546 4.4753-1.2085 7.3164-0.83984 4.6828 3.0259 8.8579 7.4177 12 12v2c-7.1099-0.12051-7.1099-0.12051-9.6445-2.625-1.2108-1.7307-2.2933-3.5494-3.3555-5.375-5.2399 0.73225-8.9334 3.1865-13.379 5.918-2.6211 1.082-2.6211 1.082-4.7109 0.57031-1.9102-1.4883-1.9102-1.4883-3.5742-3.6719-3.3568-4.0473-7.459-6.8229-11.711-9.8789-0.83789-0.61166-1.6758-1.2233-2.5391-1.8535-3.5119-2.5539-7.0205-5.066-10.688-7.3926-0.79148-0.55816-1.583-1.1163-2.3984-1.6914v-2l-4 2 1-4c-0.99-0.33-1.98-0.66-3-1 2-1 2-1 3.875-0.5 2.5474 0.59939 3.6833 0.42602 6.125-0.5 1.7685-1.8354 1.7685-1.8354 3.25-4.0625 0.78117-1.1002 0.78117-1.1002 1.5781-2.2227 0.38672-0.5659 0.77344-1.1318 1.1719-1.7148l1 4c0.26555-0.88043 0.53109-1.7609 0.80469-2.668 0.3532-1.1614 0.70641-2.3229 1.0703-3.5195 0.34805-1.1486 0.69609-2.2971 1.0547-3.4805 1.0703-3.332 1.0703-3.332 2.1836-6.0898 1.0367-2.6214 1.2641-4.4494 0.88672-7.2422l-3-2c0.58198-5.1846 1.797-9.8259 3.582-14.734 0.38318-1.078 0.38318-1.078 0.77409-2.1778 0.81264-2.2815 1.6344-4.5597 2.4564-6.8378 0.54031-1.5128 1.08-3.0258 1.6191-4.5391 2.5751-7.2167 5.1807-14.422 7.8132-21.618 0.60943-1.689 1.1873-3.3893 1.7551-5.0928z"
     fill="#F9E3AA"
     id="path38" />
  <path
     transform="translate(175,72)"
     d="m0 0 2 1c-0.22816 0.59168-0.45633 1.1834-0.69141 1.793-0.28746 0.7902-0.57492 1.5804-0.87109 2.3945-0.29004 0.7773-0.58008 1.5546-0.87891 2.3555-0.66972 2.9458-0.53547 4.5995 0.44141 7.457 1.7154 2.0495 1.7154 2.0495 3.9375 3.9375 3.9544 3.7595 7.0979 7.6624 10.188 12.125 5.3936 7.9212 5.3936 7.9212 11.875 14.938h2c-0.52207-0.60844-1.0441-1.2169-1.582-1.8438-6.7255-8.0093-12.594-16.48-18.418-25.156l1-2c1.3333 0.33333 2.6667 0.66667 4 1 0.61875 0.072188 1.2375 0.14438 1.875 0.21875 3.1284 1.1502 4.3815 3.219 6.375 5.8438 0.70641 0.9191 1.4128 1.8382 2.1406 2.7852 0.53109 0.71027 1.0622 1.4205 1.6094 2.1523l-2.0625-3.375c-1.1602-1.8984-1.1602-1.8984-1.9375-3.625l1-2c3.63 4.29 7.26 8.58 11 13-0.99-1.5881-1.98-3.1762-3-4.8125-3-4.8125-3-4.8125-3-8.1875l8 9-1.8125-3.875c-0.33645-0.7193-0.67289-1.4386-1.0195-2.1797-1.1626-2.2507-1.1626-2.2507-4.168-3.9453l1-2 11 9c-2.7818-3.4773-4.9612-6.017-8.25-8.8125-0.70641-0.60457-1.4128-1.2091-2.1406-1.832-0.53109-0.4473-1.0622-0.89461-1.6094-1.3555 3 0 3 0 6 1l-4-4c8.7726 2.9711 16.345 11.109 21 19v2h2l-1-1.8125c-1-2.1875-1-2.1875-1-5.1875 3.1612 1.3698 3.9927 1.9891 6 5-0.32852 4.8182-2.0089 8.6716-4 13 0.55688-0.47438 1.1138-0.94875 1.6875-1.4375 2.496-1.6865 4.3571-2.152 7.3125-2.5625 1.4606 2.6474 2 3.8945 2 7l1 3-2 2 1 3-3 1-1 16h-2l-2-9h-3l-1 9-5 1-1 4h-19l1-5c-0.23351-1.8013-0.47172-3.6023-0.74219-5.3984-0.57767-5.8292-0.32641-11.748-0.25781-17.602-0.57492-0.24105-1.1498-0.48211-1.7422-0.73047-7.3861-4.1531-12.629-12.919-17.645-19.65-2.3644-3.1364-4.7977-5.8349-7.7383-8.4316-2.7298-2.6139-2.8587-3.0848-3.5-7.125 0.3895-4.3268 1.9238-8.0931 3.625-12.062z"
     fill="#23374B"
     id="path40" />
  <path
     transform="translate(458,32)"
     d="m0 0v29l-10 4c-2.0723 0.94591-4.1342 1.9153-6.1797 2.918-1.6268 0.79217-1.6268 0.79217-3.2864 1.6003-1.1249 0.55083-2.2499 1.1017-3.4089 1.6692-8.437 4.0957-16.887 8.1462-25.438 12-1.1976 0.54274-1.1976 0.54274-2.4194 1.0964-4.0337 1.8038-8.0401 3.4053-12.268 4.7161l-1-4-13-1c-0.99612-4.1891-0.99612-4.1891 0-7 3.492-3.0548 7.5066-5.153 11.562-7.375 2.1681-1.2367 4.3361-2.4737 6.5039-3.7109 1.1278-0.63253 2.2555-1.2651 3.4175-1.9167 4.9255-2.7781 9.7542-5.7163 14.596-8.637 4.0814-2.4618 8.179-4.8956 12.28-7.3252 0.69134-0.40986 1.3827-0.81972 2.095-1.242 2.8234-1.6737 5.6472-3.3467 8.4715-5.019 2.1033-1.2456 4.206-2.4923 6.3086-3.739 0.63742-0.37705 1.2748-0.75409 1.9316-1.1426 8.2476-4.8926 8.2476-4.8926 9.834-4.8926z"
     fill="#FAE5AC"
     id="path42" />
  <g
     id="g50">
    <path
       transform="translate(2,60)"
       d="m0 0c1.543 0.60074 3.0843 1.2058 4.625 1.8125 1.2878 0.50467 1.2878 0.50467 2.6016 1.0195 2.7734 1.168 2.7734 1.168 5.5547 2.7617 4.1022 1.7922 7.6655 1.9624 12.094 2.0938 0.78375 0.03416 1.5675 0.06832 2.375 0.10352 1.9162 0.081788 3.8331 0.14708 5.75 0.20898v8l3.5 1c5.2631 1.7516 10.116 4.2181 15.044 6.7288 5.1993 2.6487 10.431 5.2133 15.706 7.7087 0.71479 0.34184 1.4296 0.68369 2.166 1.0359 3.2108 1.5134 6.1237 2.6615 9.584 3.5266v24l-8 1v-12c-16.464 4.9236-16.464 4.9236-32.793 10.273-2.0399 0.67153-4.1236 1.2057-6.207 1.7266v-52h-32v-9z"
       fill="#a6d09f"
       id="path44" />
    <path
       transform="translate(171,2)"
       d="m0 0h47c0.62874 9.4311 1.1429 18.587 1 28-1.0106 0.37125-2.0212 0.7425-3.0625 1.125-6.0031 3.3078-8.2957 10.869-10.938 16.875-5.2632-1.5372-8.7063-4.9752-12.688-8.5625-1.3357-1.1905-2.6729-2.3794-4.0117-3.5664-0.58612-0.52666-1.1722-1.0533-1.7761-1.5959-1.5142-1.3661-1.5142-1.3661-3.5247-2.2751-0.42188-1.9688-0.42188-1.9688-0.75-4.5-0.90184-5.0245-2.7563-8.233-5.7188-12.328-2.8112-3.9873-5.5312-8.2052-5.5312-13.172z"
       fill="#a6d09f"
       id="path46" />
    <path
       transform="translate(172,16)"
       d="m0 0c3.1634 3.1134 4.8487 6.5762 5.3164 10.977-0.0034789 2.6927-0.094473 5.3405-0.31641 8.0234 0.54785 0.23332 1.0957 0.46664 1.6602 0.70703 6.7489 3.1056 12.465 7.1385 18.336 11.634 3.1467 2.7157 3.1467 2.7157 7.0037 3.6589v3c-1.8359 1.7969-1.8359 1.7969-4.375 3.75-0.90879 0.69996-1.8176 1.3999-2.7539 2.1211-12.539 9.2976-12.539 9.2976-17.871 12.129l-2-1 9-7c-2.1576-4.3152-4.4868-6.2085-8.3125-8.875-0.56912-0.42797-1.1382-0.85594-1.7246-1.2969-1.8887-1.3897-1.8887-1.3897-4.9629-2.8281-2.7983 0.53509-2.7983 0.53509-5 2-3.4377 1.7189-6.3399 1.9021-10 1-6.2451-3.7891-12.19-8.487-17-14v-4l20 1 2-11c-0.89203-0.13277-1.7841-0.26555-2.7031-0.40234-1.1705-0.1766-2.3409-0.3532-3.5469-0.53516-1.1602-0.17402-2.3203-0.34805-3.5156-0.52734-2.4654-0.40793-4.8286-0.87417-7.2344-1.5352v-4c0.9784-0.12117 1.9568-0.24234 2.9648-0.36719 8.6681-1.0778 8.6681-1.0778 17.223-2.8203 4.7609-1.0146 4.7609-1.0146 7.8125 0.1875z"
       fill="#687966"
       id="path48" />
  </g>
  <path
     transform="translate(269,62)"
     d="m0 0 1 3 1-2h3c-0.68537 4.9945-2.0202 9.5968-3.5625 14.375-0.35095 1.1041-0.35095 1.1041-0.70898 2.2305-0.57252 1.7993-1.15 3.5971-1.7285 5.3945-0.55348-2.0755-1-3.8437-1-6-0.47051 0.64969-0.94102 1.2994-1.4258 1.9688-0.62262 0.83531-1.2452 1.6706-1.8867 2.5312-0.61488 0.83531-1.2298 1.6706-1.8633 2.5312-0.60199 0.64969-1.204 1.2994-1.8242 1.9688h-6v3c0.99-0.33 1.98-0.66 3-1 0.52207 0.56074 1.0441 1.1215 1.582 1.6992 2.83 2.6929 5.9079 4.8897 9.1055 7.1133 1.2467 0.88588 2.4928 1.7726 3.7383 2.6602 2.152 1.5278 4.3136 3.0331 6.4922 4.5234 5.9207 4.2263 5.9207 4.2263 6.7695 8.3164-0.6875 2.6875-0.6875 2.6875-2.6875 4.6875-0.99-0.33-1.98-0.66-3-1l2-1c-0.60248-3.6594-0.94808-3.9596-4.1328-6.4375-1.323-0.86607-2.6541-1.7198-3.9922-2.5625-0.65227-0.42539-1.3045-0.85078-1.9766-1.2891-4.2154-2.7267-8.5206-5.2548-12.898-7.7109 1.98 2.31 3.96 4.62 6 7-0.80438-0.33-1.6088-0.66-2.4375-1-2.2593-1.0606-2.2593-1.0606-3.5625-1l5 5c-4.7982-1.6211-8.6673-4.2928-12.812-7.125-0.69287-0.46793-1.3857-0.93586-2.0996-1.418-1.6988-1.1482-3.3937-2.302-5.0879-3.457l1-2-3-3 2-5h-1-2v-4l-3 2v-2h-2l-0.3125 1.9375-0.6875 2.0625c-0.99 0.33-1.98 0.66-3 1 0.73268-4.5812 2.3577-7.8346 4.7109-11.785 1.4292-2.3503 1.4292-2.3503 2.7266-5.5898 4.3765-4.4833 10.541-4.7073 16.562-5.625 1.3283 3.9849 0.23204 5.4005-1.4375 9.1875-0.47309 1.0867-0.94617 2.1734-1.4336 3.293-0.37254 0.83145-0.74508 1.6629-1.1289 2.5195 0.74057-1.5894 0.74057-1.5894 1.4961-3.2109 0.64712-1.388 1.2943-2.776 1.9414-4.1641 0.32549-0.69867 0.65098-1.3973 0.98633-2.1172 2.4629-5.2812 2.4629-5.2812 3.5762-7.5078h4c1.75 2 1.75 2 3 4 0.99-1.65 1.98-3.3 3-5z"
     fill="#203448"
     id="path52" />
  <path
     transform="translate(143,2)"
     d="m0 0h28l4 10c2.2474 3.1584 2.2474 3.1584 4.6328 6.2109 3.583 4.6887 3.5588 8.0415 3.3672 13.789 0.52723 0.21785 1.0545 0.4357 1.5977 0.66016 3.3019 1.8415 6.0106 4.2973 8.8398 6.7773 3.6975 3.2379 7.2324 6.1749 11.562 8.5625 0.10312-0.5427 0.20625-1.0854 0.3125-1.6445 0.85743-2.9377 2.2024-5.3692 3.6875-8.043 0.53625-0.97324 1.0725-1.9465 1.625-2.9492 1.375-2.3633 1.375-2.3633 2.375-3.3633 5.228-0.26583 9.0712 0.028469 14 2 0.75 2.125 0.75 2.125 1 5-1.9375 3.3125-1.9375 3.3125-4 6l-3-3-5 2v-3c-1.8124 4.0189-3.335 7.6111-4 12-5.8594 1.1719-5.8594 1.1719-8 1-1.3871-1.2773-2.7082-2.6264-4-4-2.5332-1.9571-5.1711-3.7552-7.8125-5.5625-0.68643-0.48146-1.3729-0.96293-2.0801-1.459-3.261-2.2429-6.3925-4.2061-10.061-5.7129-3.0469-1.2656-3.0469-1.2656-3.9844-2.9531-0.0625-2.3125-0.0625-2.3125 0.1875-6.0625 0.11365-5.0384-2.3273-8.3253-5.25-12.25-0.68062 0.12117-1.3612 0.24234-2.0625 0.36719-8.6166 1.4896-17.257 2.5974-25.938 3.6328 1-3 1-3 3.0625-4.1875l1.9375-0.8125c-1.0795-2.8233-2.2503-5.491-3.625-8.1875-1.375-2.8125-1.375-2.8125-1.375-4.8125z"
     fill="#3B414E"
     id="path54" />
  <path
     transform="translate(218,2)"
     d="m0 0h24c0.23109 10.861-0.63376 21.241-2 32-1.135-0.061875-1.135-0.061875-2.293-0.125-3.7502 0.17317-5.7513 1.9254-8.707 4.125l-0.5-2.3125c-2.1948-3.9323-5.3222-4.4925-9.5-5.6875-0.8861-9.3832-1.088-18.586-1-28z"
     fill="#FAE4AD"
     id="path56" />
  <path
     transform="translate(257,98)"
     d="m0 0c5.4784 2.0281 9.9446 5.1041 14.75 8.375 0.87527 0.5775 1.7505 1.155 2.6523 1.75 0.83145 0.56461 1.6629 1.1292 2.5195 1.7109 0.75894 0.51095 1.5179 1.0219 2.2998 1.5483 2.0217 1.8369 2.4156 2.949 2.7783 5.6157h1l1-5 4 4c4.4127-1.6814 8.4605-3.8112 12.598-6.0742 2.4023-0.92578 2.4023-0.92578 4.5703-0.76172 3.0253 1.3804 4.1786 4.0605 5.832 6.8359-0.81984-0.069609-1.6397-0.13922-2.4844-0.21094-3.2536-0.16346-6.2815-0.19333-9.5156 0.21094-3.409 3.0991-4.1983 5.7248-4.4375 10.188 0.13101 3.5864 0.13101 3.5864 1.4531 5.4141 3.0758 2.1676 6.5575 2.7747 10.172 3.5859 0.74959 0.17725 1.4992 0.35449 2.2715 0.53711 1.8448 0.43475 3.6926 0.85636 5.541 1.2754v2c-0.55945-0.011602-1.1189-0.023203-1.6953-0.035156-12.839-0.33717-12.839-0.33717-25.305 2.0352-3.2936-2.6056-3.6736-5.2478-4.5625-9.25-2.2244-7.6373-5.8484-9.8478-12.438-13.75-1.6891-1.3048-3.3561-2.6387-5-4-4.8294-3.9248-9.8577-7.4989-15-11 3.4436 0 4.748 0.79592 7.6875 2.5 0.80824 0.46406 1.6165 0.92812 2.4492 1.4062 0.61488 0.36094 1.2298 0.72188 1.8633 1.0938l-6-5 1-2 6 4c-1.98-2.31-3.96-4.62-6-7z"
     fill="#687966"
     id="path58" />
  <path
     transform="translate(289,2)"
     d="m0 0h28c-1.7321 4.3301-3.6565 8.4671-5.75 12.625-0.35272 0.70133-0.70544 1.4027-1.0688 2.1252-8.5595 16.939-8.5595 16.939-11.181 18.25-1.4606-2.6474-2-3.8945-2-7h-2v2h-8l-1-5h-2c-0.49683-7.5767 1.1514-13.021 4-20l1-3z"
     fill="#FBE5AC"
     id="path60" />
  <path
     transform="translate(144,19)"
     d="m0 0c6.7282-0.22262 12.54 0.049785 19 2 0.60003 12.29 0.60003 12.29-3 18-3.7131 1.1668-6.9768 0.97842-10.812 0.5625-0.97582-0.10184-1.9516-0.20367-2.957-0.30859-0.73605-0.083789-1.4721-0.16758-2.2305-0.25391 1.6029 1.2932 3.2074 2.5845 4.8125 3.875 0.89332 0.7193 1.7866 1.4386 2.707 2.1797 4.2843 3.4018 4.2843 3.4018 9.4805 4.1953l2.0625 0.015625c2.2617-0.16645 2.2617-0.16645 4.9375-2.2656 4.3434-0.816 6.7012 0.21258 10.234 2.5898 1.5156 1.1017 3.0207 2.2181 4.5156 3.3477 1.5151 1.114 3.0307 2.2273 4.5469 3.3398 0.66354 0.4975 1.3271 0.995 2.0107 1.5076 1.6845 1.2772 1.6845 1.2772 3.6924 2.2151-1.98-2.64-3.96-5.28-6-8 4 1 4 1 7 2v-3c-1.8829-1.7408-3.6981-3.2373-5.75-4.75-0.53883-0.4241-1.0777-0.8482-1.6328-1.2852-3.1652-2.4337-3.1652-2.4337-7.0078-2.7305l-1.6094 0.76562c0.75-1.9375 0.75-1.9375 2-4 1.8279-0.78467 1.8279-0.78467 4-1 1.967 0.97217 1.967 0.97217 4.0039 2.4922 0.74057 0.54012 1.4811 1.0802 2.2441 1.6367 1.1457 0.86432 1.1457 0.86432 2.3145 1.7461 1.5198 1.1255 3.0419 2.248 4.5664 3.3672 0.67104 0.50386 1.3421 1.0077 2.0334 1.5269 1.9258 1.4077 1.9258 1.4077 4.8376 2.231v3c-1.8359 1.7969-1.8359 1.7969-4.375 3.75-0.90879 0.69996-1.8176 1.3999-2.7539 2.1211-12.539 9.2976-12.539 9.2976-17.871 12.129l-2-1 9-7c-2.1576-4.3152-4.4868-6.2085-8.3125-8.875-0.56912-0.42797-1.1382-0.85594-1.7246-1.2969-1.8887-1.3897-1.8887-1.3897-4.9629-2.8281-2.7983 0.53509-2.7983 0.53509-5 2-3.4377 1.7189-6.3399 1.9021-10 1-6.2451-3.7891-12.19-8.487-17-14v-4l20 1 2-11c-1.338-0.19916-1.338-0.19916-2.7031-0.40234-1.1705-0.1766-2.3409-0.3532-3.5469-0.53516-1.1602-0.17402-2.3203-0.34805-3.5156-0.52734-2.4654-0.40793-4.8286-0.87417-7.2344-1.5352v-4z"
     fill="#293246"
     id="path62" />
  <path
     transform="translate(220.16 30.066)"
     d="m0 0c6.3867 1.3518 6.3867 1.3518 8.9062 4.5586l0.9375 2.375c0.68062-0.35062 1.3612-0.70125 2.0625-1.0625 4.1714-1.3313 8.0071-0.90271 11.938 1.0625 0.48438 2.4336 0.48438 2.4336 0.75 5.4375 0.14695 1.4831 0.14695 1.4831 0.29688 2.9961-0.046875 2.5664-0.046875 2.5664-2.0469 4.5664l-3-2-3 3v-4c-0.99 1.32-1.98 2.64-3 4v-4l-3 6c-1.3122-3.9367-0.24296-6.1249 1-10-2.6269 2.6269-2.4006 4.3373-3 8-0.91903 3.0289-1.9456 6.0158-3 9h2v5l-3 1c-2.9856-1.955-5.4496-4.514-8-7-0.55043-0.50273-1.1009-1.0055-1.668-1.5234-2.8763-2.9166-3.332-4.3426-3.332-8.4766 0.72501-3.6602 2.1379-6.7616 4-10l1 4 2-2h3l2 3c2.6556-3.8727 3-5.0201 3-10-5.94-0.99-5.94-0.99-12-2 3-2 3-2 5.1562-1.9336z"
     fill="#303C4E"
     id="path64" />
  <path
     transform="translate(258.81 46.125)"
     d="m0 0c2.1875 1.875 2.1875 1.875 2.6875 5.375-0.5 3.5-0.5 3.5-2 5.4375l-1.5 1.0625h2l2-3c8.0094 0.77013 8.0094 0.77013 11 4v4h-2l-1 3-1-3c-0.99 1.65-1.98 3.3-3 5l-2.375-1.9375c-2.4204-2.0439-2.4204-2.0439-4.625-3.0625l-0.6875 2.3125c-4.9929 14.028-4.9929 14.028-8.3125 15.688 1.6667-5 3.3333-10 5-15-2.2752 0.36969-4.5452 0.77172-6.8125 1.1875-1.2646 0.22043-2.5291 0.44086-3.832 0.66797-3.5064 0.83264-3.5064 0.83264-5.1797 3.6953-0.58201 1.2124-0.58201 1.2124-1.1758 2.4492l-2 1c0.99512-3.0016 1.9966-6.0011 3-9 0.27167-0.81694 0.54334-1.6339 0.82324-2.4756 0.83168-2.4734 1.6894-4.9366 2.5518-7.3994 0.27844-0.84047 0.55688-1.6809 0.84375-2.5469 2.1526-6.0698 2.1526-6.0698 5.3516-8.6562 4.0106-1.5217 6.3941-0.33613 10.242 1.2031z"
     fill="#656465"
     id="path66" />
  <path
     transform="translate(235,33)"
     d="m0 0c4.1383 0.30097 6.5185 0.67898 10 3 0.98515 2.6236 1.4224 5.2452 2 8l1.5625-1.0625c3.5108-1.3503 5.8162-0.82695 9.4375 0.0625 2.9375 1.6875 2.9375 1.6875 5 4 0.3125 3.25 0.3125 3.25 0 6l2.625 0.1875c4.4742 1.0771 6.1983 2.4846 9.375 5.8125 0.375 2.8125 0.375 2.8125 0 5l-2-1v-4c-3.5341-2.1205-6.9439-2.532-11-3-0.99 1.32-1.98 2.64-3 4l-2-3 3-2c0.66677-3.4575 0.66677-3.4575 0-7-2.0351-2.1879-2.0351-2.1879-5-3-3.0775 0.1231-5.1079 0.29809-7.5586 2.2263-1.814 2.2322-2.4998 4.2905-3.3789 7.0276-0.5066 1.5285-0.5066 1.5285-1.0234 3.0879-0.69385 2.1507-1.3866 4.3017-2.0781 6.4531-0.5066 1.5266-0.5066 1.5266-1.0234 3.084-0.30035 0.93401-0.6007 1.868-0.91016 2.8303-1.0273 2.2908-1.0273 2.2908-4.0273 4.2908l-1-3c-0.76312-0.0825-1.5262-0.165-2.3125-0.25-3.2112-0.89616-3.9812-1.9661-5.6875-4.75l2-3-2-1h2v-2h-2c0.19916-0.85271 0.19916-0.85271 0.40234-1.7227 1.0861-4.7489 1.9808-9.4451 2.5977-14.277 0.99-0.33 1.98-0.66 3-1l-1 8 3-6 1 4 3-3v4c0.99-1.32 1.98-2.64 3-4l2 2h1v-11c-2.2786-0.22786-4.5573-0.45573-6.8359-0.68359-2.1641-0.31641-2.1641-0.31641-4.1641-1.3164l2-2z"
     fill="#1E3447"
     id="path68" />
  <path
     transform="translate(357,92)"
     d="m0 0v16c-22.149 11.915-22.149 11.915-36 10l-2-4c0.52207-0.31115 1.0441-0.62229 1.582-0.94287 2.4737-1.4757 4.946-2.9535 7.418-4.4321 0.8996-0.53786 1.7992-1.0757 2.7261-1.6299 6.5357-3.9203 13.013-7.9227 19.422-12.047 4.6365-2.9478 4.6365-2.9478 6.8516-2.9478z"
     fill="#F9E2AC"
     id="path70" />
  <path
     transform="translate(267,78)"
     d="m0 0c1.1037 3.3111 0.92674 5.2475 0.5625 8.6875-0.10184 0.99387-0.20367 1.9877-0.30859 3.0117-0.083789 0.75926-0.16758 1.5185-0.25391 2.3008l-1-2h-2l-1-3-1 3c1.1224 0.79301 2.2448 1.586 3.3672 2.3789 1.0747 0.75954 1.0747 0.75954 2.1711 1.5344 1.5611 1.1018 3.1235 2.2019 4.687 3.3003 3.3557 2.3591 6.7074 4.7162 9.9895 7.177 0.85723 0.63422 1.7145 1.2684 2.5977 1.9219 0.72832 0.55301 1.4566 1.106 2.207 1.6758 1.9078 1.2007 1.9078 1.2007 3.9648 0.80859 2.9741-1.1758 5.8272-2.5535 8.6992-3.957 2.6905-0.97546 4.4753-1.2085 7.3164-0.83984 4.6828 3.0259 8.8579 7.4177 12 12v2c-7.1099-0.12051-7.1099-0.12051-9.6445-2.625-1.2108-1.7307-2.2933-3.5494-3.3555-5.375-5.2399 0.73225-8.9334 3.1865-13.379 5.918-2.6211 1.082-2.6211 1.082-4.7109 0.57031-1.9102-1.4883-1.9102-1.4883-3.5742-3.6719-3.3568-4.0473-7.459-6.8229-11.711-9.8789-0.83789-0.61166-1.6758-1.2233-2.5391-1.8535-3.5119-2.5539-7.0205-5.066-10.688-7.3926-0.79148-0.55816-1.583-1.1163-2.3984-1.6914v-2l-4 2 1-4c-0.99-0.33-1.98-0.66-3-1 2-1 2-1 3.875-0.5 2.5474 0.59939 3.6833 0.42602 6.125-0.5 1.7685-1.8354 1.7685-1.8354 3.25-4.0625 0.52078-0.73348 1.0416-1.467 1.5781-2.2227 0.38672-0.5659 0.77344-1.1318 1.1719-1.7148z"
     fill="#F5E0AA"
     id="path72" />
  <path
     transform="translate(228,96)"
     d="m0 0c6.7046 3.9562 6.7046 3.9562 7.9375 8.3125l0.0625 2.6875c1.8266-4.1215 1.8266-4.1215 1.125-8.375-0.37125-0.53625-0.7425-1.0725-1.125-1.625l6 4 2-3 5 2v3l-5-2 9 9-4-1c0.53625 0.72188 1.0725 1.4438 1.625 2.1875 1.375 2.8125 1.375 2.8125 0.5625 5.5625l-1.1875 2.25v1l2 1c-4.8733 1.5913-8.8079 2.2119-14 2l-1-2h3l-3-6 1-1-3-3-1 2c-2.3053 1.3064-4.4757 2.1586-7 3 2-5 2-5 3.1875-7.4375 1.2736-4.0169 0.4417-7.156-1.25-10.938-0.30938-0.53625-0.61875-1.0725-0.9375-1.625z"
     fill="#2A3A4F"
     id="path74" />
  <path
     transform="translate(210 52.613)"
     d="m0 0c4.2021 0.54168 5.3429 2.3508 8 5.5742 3.4626 4.0589 6.7662 7.5814 11 10.812-3 0-3 0-6-1h-3c-3.5029-2.4713-6.7-5.2571-10-8l4 13c-4-2-4-2-5.25-5.375-0.75-3.625-0.75-3.625-0.75-7.625l-2.3438 1.8281c-5.6643 4.3464-11.093 8.2691-17.656 11.172l-1-2c-0.99 0.33-1.98 0.66-3 1v-2l2-1-1-2c0.55688-0.35191 1.1138-0.70383 1.6875-1.0664 4.8805-3.1575 9.2113-6.4703 13.391-10.516 3.1094-2.2941 6.1692-2.3209 9.9219-2.8047z"
     fill="#EDE1AA"
     id="path76" />
  <path
     transform="translate(357,108)"
     d="m0 0 1 14h2v-4h4v5l-1.9375 0.875c-2.2146 0.95323-2.2146 0.95323-3.0625 3.125-0.040224 2.333-0.043202 4.6671 0 7l5-1v5h-4l1 2c0.99 0.33 1.98 0.66 3 1v5h-5l-1-3h-2v-24h-34v-1c1.1853 0.04834 1.1853 0.04834 2.3945 0.097656 11.089-0.11406 19.215-4.1553 28.856-9.2874 1.749-0.8103 1.749-0.8103 3.749-0.8103z"
     fill="#4c594a"
     id="path78" />
  <path
     transform="translate(438,109)"
     d="m0 0v19h-13v-6h2v-4l-17-1c3.749-1.8745 7.4734-3.2566 11.438-4.5625 0.65549-0.22107 1.311-0.44215 1.9863-0.66992 5.008-1.6626 9.2963-2.7676 14.576-2.7676z"
     fill="#FAE4AD"
     id="path80" />
  <path
     transform="translate(143,2)"
     d="m0 0h28l3 9-3.125-0.25c-5.5361-0.039757-10.561 1.7434-15.801 3.375-3.0742 0.875-3.0742 0.875-6.0742 0.875-1.0051-1.7888-2.0039-3.5811-3-5.375-0.83531-1.4966-0.83531-1.4966-1.6875-3.0234-1.3125-2.6016-1.3125-2.6016-1.3125-4.6016z"
     fill="#FAE8AD"
     id="path82" />
  <path
     transform="translate(208,60)"
     d="m0 0c0.19336 0.75926 0.38672 1.5185 0.58594 2.3008 0.39059 1.4908 0.39059 1.4908 0.78906 3.0117 0.25523 0.98613 0.51047 1.9723 0.77344 2.9883 0.77069 2.8798 0.77069 2.8798 2.8516 5.6992l-1 2h2l1 5h-2v-2l-1.75-0.875c-1.4668-0.73338-2.9257-1.4827-4.375-2.25-1.8322-1.016-1.8322-1.016-3.875-0.875l-1 3c-2.1253-0.14069-4.2503-0.28771-6.375-0.4375-1.1834-0.081211-2.3667-0.16242-3.5859-0.24609-3.0391-0.31641-3.0391-0.31641-5.0391-1.3164l-1.9375 1c-2.0625 1-2.0625 1-5.0625 0 0.50338-0.26627 1.0068-0.53254 1.5254-0.80688 12.372-6.3639 12.372-6.3639 23.162-15.013 1.3125-1.1797 1.3125-1.1797 3.3125-1.1797z"
     fill="#273C4D"
     id="path84" />
  <path
     transform="translate(129,125)"
     d="m0 0h15v16c-10.84 0.097656-10.84 0.097656-14 0-1-1-1-1-1.0977-4.3789 0.005742-1.3946 0.018754-2.7891 0.035156-4.1836l0.0625-7.4375z"
     fill="#4C5359"
     id="path86" />
  <path
     transform="translate(242,36)"
     d="m0 0 2 1c0.48438 2.4336 0.48438 2.4336 0.75 5.4375 0.14695 1.4831 0.14695 1.4831 0.29688 2.9961-0.046875 2.5664-0.046875 2.5664-2.0469 4.5664l-3-2-3 3v-4c-0.99 1.32-1.98 2.64-3 4v-4l-3 6c-1.3122-3.9367-0.24296-6.1249 1-10-2.6092 2.6092-2.4436 4.3853-3 8-0.6475 2.1375-1.3351 4.2633-2.0625 6.375-0.36223 1.0596-0.72445 2.1192-1.0977 3.2109-0.27715 0.79664-0.5543 1.5933-0.83984 2.4141-0.99-0.33-1.98-0.66-3-1 0.70244-2.8994 1.4197-5.7936 2.1602-8.6836 0.51838-2.047 1.011-4.101 1.4609-6.1641 1.0646-4.3839 2.0563-7.4371 5.6289-10.34 3.7486-2.2682 6.5325-1.9702 10.75-0.8125z"
     fill="#ECDCA7"
     id="path88" />
  <path
     transform="translate(172,12)"
     d="m0 0c4.6593 3.1672 7.2415 8.8171 9 14 0.04125 1.1009 0.0825 2.2017 0.125 3.3359 1.2246 5.1279 3.9156 6.7939 8.0625 9.7891 1.3272 1.0022 2.654 2.0048 3.9805 3.0078 0.64244 0.47599 1.2849 0.95197 1.9468 1.4424 2.7108 2.0487 5.2955 4.2258 7.8853 6.4248l-1 2c-0.43756-0.34257-0.87511-0.68514-1.3259-1.0381-2.0298-1.5803-4.0705-3.1461-6.1116-4.7119-0.68771-0.53883-1.3754-1.0777-2.084-1.6328-4.3823-3.3428-8.5161-5.7022-13.713-7.5713-1.7654-1.0459-1.7654-1.0459-2.5327-2.9277-0.23267-2.1182-0.23267-2.1182 0.017334-5.8682 0.11365-5.0384-2.3273-8.3253-5.25-12.25-1.917 0.31046-3.8336 0.62345-5.75 0.9375-1.601 0.26104-1.601 0.26104-3.2344 0.52734-2.874 0.4631-2.874 0.4631-5.0781 1.0977-2.435 0.54984-4.6943 0.53281-7.1875 0.5-0.89203-0.0090234-1.7841-0.018047-2.7031-0.027344-0.67547-0.011602-1.3509-0.023203-2.0469-0.035156 3.0168-3.0168 6.6394-3.5172 10.688-4.625 0.79084-0.22945 1.5817-0.45891 2.3965-0.69531 4.7166-1.3087 8.9813-2.217 13.916-1.6797z"
     fill="#F5D9AE"
     id="path90" />
  <path
     transform="translate(46,125)"
     d="m0 0h14c1.6602 6.1523 1.6602 6.1523 2 8l-1 1c-0.36761 2.3282-0.70242 4.6618-1 7h-14v-16z"
     fill="#3C4C55"
     id="path92" />
  <path
     transform="translate(88,125)"
     d="m0 0h14v16l-14-1v-15z"
     fill="#3C4B56"
     id="path94" />
  <path
     transform="translate(259,115)"
     d="m0 0 4 2c-0.99 0.33-1.98 0.66-3 1 0.010474 0.68626 0.020947 1.3725 0.031738 2.0796 0.04148 3.0984 0.067562 6.1968 0.093262 9.2954 0.016758 1.0802 0.033516 2.1605 0.050781 3.2734 0.0064453 1.0312 0.012891 2.0625 0.019531 3.125 0.010474 0.9531 0.020947 1.9062 0.031738 2.8882-0.22705 2.3384-0.22705 2.3384-2.2271 4.3384-3.625 0.125-3.625 0.125-7 0-0.175-3.2285-0.28107-6.4557-0.375-9.6875-0.050273-0.91201-0.10055-1.824-0.15234-2.7637-0.14589-6.6866-0.14589-6.6866 1.8193-9.2036 1.6064-1.3022 1.6064-1.3022 4.708-3.3452l2-3z"
     fill="#a6d09f"
     id="path96" />
  <path
     transform="translate(258.81 46.125)"
     d="m0 0c2.1875 1.875 2.1875 1.875 2.5 5.5625l-0.3125 3.3125-1.9375 0.8125c-2.3938 1.0742-2.3938 1.0742-3.0625 4.1875l-1-3c-3.0026-0.33218-3.0026-0.33218-4.6875 1.5-0.43312 0.495-0.86625 0.99-1.3125 1.5v-5l-2 1-1-2c-0.79339 2.041-1.5846 4.0828-2.375 6.125-0.44086 1.137-0.88172 2.2739-1.3359 3.4453-1.3181 3.3817-1.3181 3.3817-2.2656 6.7344-1.0234 2.6953-1.0234 2.6953-4.0234 4.6953 0.99512-3.0016 1.9966-6.0011 3-9 0.27167-0.81694 0.54334-1.6339 0.82324-2.4756 0.83168-2.4734 1.6894-4.9366 2.5518-7.3994 0.27844-0.84047 0.55688-1.6809 0.84375-2.5469 2.1526-6.0698 2.1526-6.0698 5.3516-8.6562 4.0106-1.5217 6.3941-0.33613 10.242 1.2031z"
     fill="#EEDFAA"
     id="path98" />
  <path
     transform="translate(217.16 31.793)"
     d="m0 0c0.77344 0.1302 1.5469 0.26039 2.3438 0.39453 0.77344 0.1173 1.5469 0.23461 2.3438 0.35547 2.1562 0.45703 2.1562 0.45703 5.1562 1.457 0.75 2.125 0.75 2.125 1 5-1.9375 3.3125-1.9375 3.3125-4 6l-3-3-5 2v-3l-5 11h-6c1.0977-2.5863 2.2028-5.1689 3.3125-7.75 0.30873-0.72961 0.61746-1.4592 0.93555-2.2109 4.2738-9.8971 4.2738-9.8971 7.9082-10.246z"
     fill="#EEDFA8"
     id="path100" />
  <path
     transform="translate(267,78)"
     d="m0 0c1.1037 3.3111 0.92674 5.2475 0.5625 8.6875-0.10184 0.99387-0.20367 1.9877-0.30859 3.0117-0.083789 0.75926-0.16758 1.5185-0.25391 2.3008l-1-2h-2l-1-3-1 3c13.481 9.5264 13.481 9.5264 27 19l-2 2v-2c-0.73356 0.22325-1.4671 0.4465-2.2229 0.67651-3.5338 0.41163-4.4376-0.35425-7.2107-2.5007-0.81404-0.61682-1.6281-1.2336-2.4668-1.8691-0.83725-0.65807-1.6745-1.3161-2.5371-1.9941-1.6646-1.2758-3.3299-2.5505-4.9961-3.8242-0.7823-0.60634-1.5646-1.2127-2.3706-1.8374-1.8896-1.4206-3.7971-2.7202-5.7935-3.9829-0.79277-0.55043-1.5855-1.1009-2.4023-1.668v-2l-4 2 1-4c-0.99-0.33-1.98-0.66-3-1 2-1 2-1 3.875-0.5 2.5474 0.59939 3.6833 0.42602 6.125-0.5 1.7685-1.8354 1.7685-1.8354 3.25-4.0625 0.52078-0.73348 1.0416-1.467 1.5781-2.2227 0.38672-0.5659 0.77344-1.1318 1.1719-1.7148z"
     fill="#F1E3AB"
     id="path102" />
  <path
     transform="translate(257,90)"
     d="m0 0c1.3364 1.3303 2.6689 2.6644 4 4 2.2108 1.6436 4.4274 3.2408 6.6875 4.8125 1.2467 0.88588 2.4928 1.7726 3.7383 2.6602 2.152 1.5278 4.3136 3.0331 6.4922 4.5234 5.9207 4.2263 5.9207 4.2263 6.7695 8.3164-0.6875 2.6875-0.6875 2.6875-2.6875 4.6875-0.99-0.33-1.98-0.66-3-1l2-1c-0.60152-3.6801-0.94794-3.9599-4.168-6.4375-1.3322-0.86601-2.6725-1.7198-4.0195-2.5625-0.66064-0.42539-1.3213-0.85078-2.002-1.2891-1.3087-0.8423-2.6206-1.6795-3.936-2.5112-1.7532-1.1221-3.4732-2.2822-5.1909-3.4575-2.5789-1.8424-2.5789-1.8424-5.4336-2.6172-2.25-1.125-2.25-1.125-3.5625-4.25l-0.6875-2.875c3-1 3-1 5-1z"
     fill="#2A354A"
     id="path104" />
  <path
     transform="translate(2,60)"
     d="m0 0c1.543 0.60074 3.0843 1.2058 4.625 1.8125 1.2878 0.50467 1.2878 0.50467 2.6016 1.0195 2.9839 1.2566 5.8775 2.72 8.7734 4.168l17 1v52l2 1h-3v-52h-32v-9z"
     fill="#69444D"
     id="path106" />
  <path
     transform="translate(193,77)"
     d="m0 0c12.137 0.78305 20.864 4.7457 29 14 6 9.0598 6 9.0598 6 13h-2c-1.2617-1.7227-1.2617-1.7227-2.6875-4.0625-3.7665-5.8385-7.8752-11.028-14.312-13.938l2 3-2.25-1c-2.8888-1.2278-2.8888-1.2278-6.75-1l-1-3 1-1c-0.84885-0.27264-0.84885-0.27264-1.7148-0.55078-0.73348-0.25137-1.467-0.50273-2.2227-0.76172-0.7309-0.24363-1.4618-0.48727-2.2148-0.73828-1.8477-0.94922-1.8477-0.94922-2.8477-3.9492z"
     fill="#E8DEA8"
     id="path108" />
  <path
     transform="translate(235,33)"
     d="m0 0c4.1383 0.30097 6.5185 0.67898 10 3 0.98515 2.6236 1.4224 5.2452 2 8l1.5625-1.0625c3.5108-1.3503 5.8162-0.82695 9.4375 0.0625 2.9375 1.6875 2.9375 1.6875 5 4 0.3125 3.25 0.3125 3.25 0 6l2.625 0.1875c4.4742 1.0771 6.1983 2.4846 9.375 5.8125 0.375 2.8125 0.375 2.8125 0 5l-2-1v-4c-3.5341-2.1205-6.9439-2.532-11-3-0.99 1.32-1.98 2.64-3 4l-2-3 3-2c0.66677-3.4575 0.66677-3.4575 0-7-2.0351-2.1879-2.0351-2.1879-5-3-3.1274 0.12509-5.1485 0.42221-7.75 2.1875-1.6871 2.4462-2.4297 4.9732-3.25 7.8125-1.9375-0.6875-1.9375-0.6875-4-2-0.875-2.5-0.875-2.5-1-5l2-2 2 2h1v-11c-2.2786-0.22786-4.5573-0.45573-6.8359-0.68359-2.1641-0.31641-2.1641-0.31641-4.1641-1.3164l2-2z"
     fill="#493D4C"
     id="path110" />
  <path
     transform="translate(169,50)"
     d="m0 0c4.0385 1.4271 7.2213 3.3688 10.688 5.875 0.95262 0.67805 1.9052 1.3561 2.8867 2.0547 2.4258 2.0703 2.4258 2.0703 4.4258 6.0703l-8 6c-3.0937-3.0937-4.7929-6.1396-6.6875-10-0.32033-0.62906-0.64066-1.2581-0.9707-1.9062-1.4349-2.8882-2.3418-4.8262-2.3418-8.0938z"
     fill="#F9E5AF"
     id="path112" />
  <path
     d="m283 19h1v6c0.99-0.33 1.98-0.66 3-1l1 5 5 1v1h-5c0.12375 1.1447 0.12375 1.1447 0.25 2.3125-0.25 2.6875-0.25 2.6875-2.125 4.5-2.125 1.1875-2.125 1.1875-4.125 1.1875l-1 3c-1.98 0.33-3.96 0.66-6 1 2.3064-8.1382 5.1043-16.057 8-24z"
     fill="#bae2a9"
     id="path114" />
  <path
     transform="translate(251,123)"
     d="m0 0v20c6.3148-0.52566 6.3148-0.52566 9-2l-1 5h2v2h-11c-3.308-6.6159-3.983-14.651-3-22 2.3846-3 2.3846-3 4-3z"
     fill="#5D5B5D"
     id="path116" />
  <path
     transform="translate(91,102)"
     d="m0 0c2.6494 1.1171 5.2944 2.2432 7.9375 3.375 1.1321 0.47566 1.1321 0.47566 2.2871 0.96094 5.6621 2.4375 5.6621 2.4375 6.7754 4.6641-2.4571 0.83698-4.9156 1.6697-7.375 2.5-0.69867 0.23848-1.3973 0.47695-2.1172 0.72266-5.2812 1.7773-5.2812 1.7773-7.5078 1.7773v-14z"
     fill="#a6d09f"
     id="path118" />
  <path
     transform="translate(357,108)"
     d="m0 0v10h-21c2.7223-2.0417 4.6499-3.4467 7.6016-4.8242 0.65484-0.30615 1.3097-0.6123 1.9844-0.92773 1.0093-0.4631 1.0093-0.4631 2.0391-0.93555 0.68062-0.32033 1.3612-0.64066 2.0625-0.9707 5.0531-2.3418 5.0531-2.3418 7.3125-2.3418z"
     fill="#a6d09f"
     id="path120" />
  <path
     transform="translate(209,59)"
     d="m0 0c6.1353 3.8772 11.661 8.0829 17 13-1.2852 1.5039-1.2852 1.5039-3 3-3.7774-0.06868-6.1318-0.30191-9.1133-2.6992-2.1837-2.6629-2.843-4.7173-3.6367-8.0508-0.24234-0.98484-0.48469-1.9697-0.73438-2.9844l-0.51562-2.2656z"
     fill="#25384A"
     id="path122" />
  <path
     transform="translate(246,52)"
     d="m0 0 2 3 2-1v5c0.99-1.32 1.98-2.64 3-4l1 2 2-1-1 6h-2l-1 3-10 1c0.53852-5.2775 1.7734-9.2565 4-14z"
     fill="#3A4755"
     id="path124" />
  <path
     transform="translate(213,73)"
     d="m0 0c3.5578 0.60991 6.6829 1.5784 10 3-3.0103 0.93424-3.8665 1.0445-7 0 1.1858 3.375 2.2757 5.6472 5 8-2 1.3125-2 1.3125-5 2-2.1655-1.036-4.0272-2.3125-5.9961-3.6836-2.5274-1.6603-5.1005-2.518-8.0039-3.3164l1-4c1.625-0.8125 1.625-0.8125 4-1 2.524 1.8807 4.7753 3.7753 7 6v-4h-2l1-3z"
     fill="#28374C"
     id="path126" />
  <path
     transform="translate(244,101)"
     d="m0 0c5.1818 0.4729 8.6652 3.1772 12.812 6.0625 0.69287 0.47244 1.3857 0.94488 2.0996 1.4316 1.701 1.1613 3.3951 2.3326 5.0879 3.5059l-3 2v-2h-3v2h-4l-2 2c-3-3.625-3-3.625-3-7h3c-0.5775-0.40992-1.155-0.81984-1.75-1.2422-0.7425-0.53883-1.485-1.0777-2.25-1.6328-0.7425-0.53367-1.485-1.0673-2.25-1.6172-0.5775-0.49758-1.155-0.99516-1.75-1.5078v-2z"
     fill="#243148"
     id="path128" />
  <path
     transform="translate(207,53)"
     d="m0 0c2.6875-0.32422 2.6875-0.32422 6 0 2.5625 2.2305 2.5625 2.2305 5 5.1875 3.4626 4.0589 6.7662 7.5814 11 10.812-3 0-3 0-6-1h-3c-2.4805-1.5742-2.4805-1.5742-5.1875-3.6875-0.90105-0.68449-1.8021-1.369-2.7305-2.0742-2.082-2.2383-2.082-2.2383-2.1953-4.8828 0.037383-0.7773 0.074766-1.5546 0.11328-2.3555l-3-2z"
     fill="#E6D6A4"
     id="path130" />
  <path
     transform="translate(175,72)"
     d="m0 0 2 1c-0.22816 0.59168-0.45633 1.1834-0.69141 1.793-0.28746 0.7902-0.57492 1.5804-0.87109 2.3945-0.29004 0.7773-0.58008 1.5546-0.87891 2.3555-0.66972 2.9458-0.53547 4.5995 0.44141 7.457 1.7154 2.0495 1.7154 2.0495 3.9375 3.9375 5.9921 5.6948 10.392 12.293 15.062 19.062 0.99132 1.3398 1.987 2.6765 3 4h-3c-1.8324-2.0847-3.4808-4.1493-5.125-6.375-5.2506-6.9071-10.731-13.481-16.875-19.625-0.53325-6.1857 0.56622-10.321 3-16z"
     fill="#383846"
     id="path132" />
  <path
     transform="translate(197,117)"
     d="m0 0c2.4805 0.80078 2.4805 0.80078 5 3 0.66663 3.7323 0.46698 7.4111 0.3125 11.188-0.022559 1.0358-0.045117 2.0715-0.068359 3.1387-0.058972 2.5594-0.14121 5.1159-0.24414 7.6738-1.9619-1.1809-1.9619-1.1809-4-3-0.5459-2.3601-0.5459-2.3601-0.60938-5.1055-0.04834-1.4744-0.04834-1.4744-0.097656-2.9785-0.01418-1.0242-0.028359-2.0483-0.042969-3.1035-0.029648-1.0358-0.059297-2.0715-0.089844-3.1387-0.070729-2.558-0.12341-5.1151-0.16016-7.6738z"
     fill="#a6d09f"
     id="path134" />
  <path
     transform="translate(263,86)"
     d="m0 0 1 4h2v2c0.9958 0.30164 0.9958 0.30164 2.0117 0.60938 2.6772 1.2458 4.4345 2.4377 6.6953 4.2812 0.66967 0.54398 1.3393 1.088 2.0293 1.6484 1.3849 1.1413 2.7574 2.2977 4.1172 3.4688 3.7722 3.1426 3.7722 3.1426 8.4409 3.9043 2.4679-0.56537 2.4679-0.56537 5.7056-1.9121l2 3c-4.4333 3.0787-4.4333 3.0787-6.9529 2.7288-2.1288-0.75785-3.7013-1.6594-5.551-2.9514-0.98033-0.67905-0.98033-0.67905-1.9805-1.3718-0.68578-0.48445-1.3716-0.96889-2.0781-1.468-0.70512-0.49154-1.4102-0.98307-2.1367-1.4895-5.8226-4.0725-11.587-8.2235-17.301-12.448l2-4z"
     fill="#2B3A4D"
     id="path136" />
  <path
     transform="translate(180,26)"
     d="m0 0h1c0.016758 1.0287 0.033516 2.0573 0.050781 3.1172 1.2924 5.2866 3.8588 6.918 8.1367 10.008 1.3272 1.0022 2.654 2.0048 3.9805 3.0078 0.64244 0.47599 1.2849 0.95197 1.9468 1.4424 2.7108 2.0487 5.2955 4.2258 7.8853 6.4248l-1 2c-0.43756-0.34257-0.87511-0.68514-1.3259-1.0381-2.0298-1.5803-4.0705-3.1461-6.1116-4.7119-0.68771-0.53883-1.3754-1.0777-2.084-1.6328-4.3823-3.3428-8.5161-5.7022-13.713-7.5713-1.7654-1.0459-1.7654-1.0459-2.5171-3.1621-0.081936-0.62165-0.16387-1.2433-0.24829-1.8838 0.99 0.33 1.98 0.66 3 1l1-7z"
     fill="#EDD7A4"
     id="path138" />
  <path
     transform="translate(262,55)"
     d="m0 0c4.4369 0.33486 7.8834 0.63405 11 4v4h-2l-1 3-1-3-3 3-2-4h-2v-3l-3 3c1.875-5.875 1.875-5.875 3-7z"
     fill="#DCCB9A"
     id="path140" />
  <path
     transform="translate(389,73)"
     d="m0 0v10h6l-1 2-13-1v-7c6.875-4 6.875-4 8-4z"
     fill="#8C8C78"
     id="path142" />
  <path
     transform="translate(204,122)"
     d="m0 0h3c1.3272 6.9678 1.0883 13.93 1 21h-4v-21z"
     fill="#C3B593"
     id="path144" />
  <path
     transform="translate(202,54)"
     d="m0 0 2 1c-0.50559 4.0538-2.3535 5.4854-5.5 7.9375-4.5902 3.5386-9.3262 6.4631-14.5 9.0625v-2l2-1-1-2c0.55688-0.35191 1.1138-0.70383 1.6875-1.0664 5.524-3.5738 10.475-7.4782 15.312-11.934z"
     fill="#A09F87"
     id="path146" />
  <path
     transform="translate(235,33)"
     d="m0 0c4.1383 0.30097 6.5185 0.67898 10 3 0.98515 2.6236 1.4224 5.2452 2 8 3.465-0.495 3.465-0.495 7-1-3 2-3 2-5 2.625-3.2316 2.2217-3.882 5.733-5 9.375-1.9375-0.6875-1.9375-0.6875-4-2-0.875-2.5-0.875-2.5-1-5l2-2 2 2h1v-11c-2.2786-0.22786-4.5573-0.45573-6.8359-0.68359-2.1641-0.31641-2.1641-0.31641-4.1641-1.3164l2-2z"
     fill="#3B3E4B"
     id="path148" />
  <path
     transform="translate(221,124)"
     d="m0 0h2v14l2-1c0.65555-2.5273 0.65555-2.5273 1-5h1v11h-7l1-19z"
     fill="#A0A187"
     id="path150" />
  <path
     transform="translate(357,133)"
     d="m0 0h7v5h-4l1 2c0.99 0.33 1.98 0.66 3 1v5c-2.375 0.1875-2.375 0.1875-5 0-2.2091-3.3137-2.2248-4.3446-2.125-8.1875 0.018047-0.90105 0.036094-1.8021 0.054688-2.7305 0.023203-0.68707 0.046406-1.3741 0.070312-2.082z"
     fill="#66726D"
     id="path152" />
  <path
     transform="translate(227,71)"
     d="m0 0c2.6419 0.3644 3.87 0.88296 5.875 2.6875 1.125 2.3125 1.125 2.3125 0.4375 5.5-1.3125 2.8125-1.3125 2.8125-3.3125 3.8125l-2-1-1 2-1-3c-1.9967-1.6854-1.9967-1.6854-4-3h6c-0.99-0.33-1.98-0.66-3-1v-2l3-2-1-2z"
     fill="#193244"
     id="path154" />
  <path
     transform="translate(267,78)"
     d="m0 0c1.1037 3.3111 0.92674 5.2475 0.5625 8.6875-0.10184 0.99387-0.20367 1.9877-0.30859 3.0117-0.083789 0.75926-0.16758 1.5185-0.25391 2.3008l-1-2h-2l-1-3-2.75 1.9375c-2.6422 1.6768-4.2398 2.5994-7.25 3.0625l1-4c-0.99-0.33-1.98-0.66-3-1 2-1 2-1 3.875-0.5 2.5474 0.59939 3.6833 0.42602 6.125-0.5 1.7685-1.8354 1.7685-1.8354 3.25-4.0625 0.52078-0.73348 1.0416-1.467 1.5781-2.2227 0.38672-0.5659 0.77344-1.1318 1.1719-1.7148z"
     fill="#707770"
     id="path156" />
  <path
     transform="translate(294,94)"
     d="m0 0h1v10c-2.75 1.625-2.75 1.625-6 3-2.2031-0.91406-2.2031-0.91406-4-2 0.39832-0.45891 0.79664-0.91781 1.207-1.3906 2.2771-2.6373 4.5255-5.2497 6.6055-8.0469 0.39188-0.51562 0.78375-1.0312 1.1875-1.5625z"
     fill="#EAD9A6"
     id="path158" />
  <path
     transform="translate(3,61)"
     d="m0 0c3.8503 0.60355 6.861 1.7677 10.312 3.5625 0.88301 0.45504 1.766 0.91008 2.6758 1.3789 0.66387 0.34934 1.3277 0.69867 2.0117 1.0586v1h-15v-7z"
     fill="#a6d09f"
     id="path160" />
  <path
     transform="translate(240,82)"
     d="m0 0 1 2-1 3 5-3c-0.30938 0.53625-0.61875 1.0725-0.9375 1.625-1.2408 2.7735-1.6535 5.3754-2.0625 8.375 0.99 0.33 1.98 0.66 3 1l-1 3c-2.4936-1.2038-4.6814-2.4543-7-4v-4l-1-3c1.9375-2.6875 1.9375-2.6875 4-5z"
     fill="#858477"
     id="path162" />
  <path
     transform="translate(249,45)"
     d="m0 0c1.0327 2.7882 1.0451 3.8677 0.0625 6.75-0.35062 0.7425-0.70125 1.485-1.0625 2.25h-2c-0.79339 2.041-1.5846 4.0828-2.375 6.125-0.44086 1.137-0.88172 2.2739-1.3359 3.4453-1.3181 3.3817-1.3181 3.3817-2.2656 6.7344-1.0234 2.6953-1.0234 2.6953-4.0234 4.6953 2.0879-6.3411 4.243-12.654 6.5-18.938 0.2952-0.84885 0.59039-1.6977 0.89453-2.5723 0.29262-0.81018 0.58523-1.6204 0.88672-2.4551 0.38769-1.0924 0.38769-1.0924 0.7832-2.2068 0.93555-1.8284 0.93555-1.8284 3.9355-3.8284z"
     fill="#C2BE95"
     id="path164" />
  <path
     transform="translate(228,96)"
     d="m0 0c2.5872 1.4322 4.89 2.9162 7 5 0.87664 4.3832 0.33185 6.3718-1.75 10.312-2.062 2.4629-3.2753 3.6251-6.25 4.6875 2-5 2-5 3.1875-7.4375 1.2736-4.0169 0.4417-7.156-1.25-10.938-0.30938-0.53625-0.61875-1.0725-0.9375-1.625z"
     fill="#F1E6AB"
     id="path166" />
  <path
     transform="translate(35,112)"
     d="m0 0c4.29 0.99 8.58 1.98 13 3v2c-1.6026 0.50512-3.2071 1.0039-4.8125 1.5-1.34 0.41766-1.34 0.41766-2.707 0.84375-2.4805 0.65625-2.4805 0.65625-5.4805 0.65625v-8z"
     fill="#EFDDAA"
     id="path168" />
  <path
     transform="translate(309,107)"
     d="m0 0c3.149 1.3691 5.0478 2.8752 7.25 5.5 0.52078 0.60844 1.0416 1.2169 1.5781 1.8438 1.1719 1.6562 1.1719 1.6562 1.1719 3.6562-5.285-0.17617-5.285-0.17617-8-1-2.5-3.0625-2.5-3.0625-4-6h3l-1-4z"
     fill="#EAD8A8"
     id="path170" />
  <path
     transform="translate(243,115)"
     d="m0 0c0.99 0.33 1.98 0.66 3 1l2-1 3 3-1 2 2 1c-4.8733 1.5913-8.8079 2.2119-14 2l-1-2h3l-1-4 6 4-2-6z"
     fill="#DAD2A4"
     id="path172" />
  <path
     transform="translate(175,79)"
     d="m0 0h4l1 2c0.99 0.33 1.98 0.66 3 1-0.99 0.33-1.98 0.66-3 1 0.99 1.32 1.98 2.64 3 4l-1 2-4-2-2 2c-1.5625-1.125-1.5625-1.125-3-3 0.43478-5.4348 0.43478-5.4348 2-7z"
     fill="#D8CE9D"
     id="path174" />
  <path
     transform="translate(183,89)"
     d="m0 0c3 0 3 0 6 2h3c1.0678 1.9647 2.0655 3.9686 3 6l-1 2-3-3 2 5c-4.6565-2.7516-7.2726-5.1745-10-10v-2z"
     fill="#808575"
     id="path176" />
  <path
     transform="translate(184,59)"
     d="m0 0c2.97 0.33 5.94 0.66 9 1v3c-2.265 1.7387-4.4597 3.2517-6.875 4.75-0.65098 0.4241-1.302 0.8482-1.9727 1.2852-1.6743 1.0598-3.4102 2.0207-5.1523 2.9648l-2-1 9-7-2-5z"
     fill="#22334B"
     id="path178" />
  <path
     transform="translate(196,92)"
     d="m0 0c3.2601 3.1695 6.2224 6.3994 9 10l-2 1-1 2c-2.9152-1.074-4.7781-1.7781-7-4-0.71927-2.3177-1.391-4.651-2-7l2.4375 2.5c2.0851 2.6164 2.0851 2.6164 3.5625 2.5-0.495-0.78375-0.99-1.5675-1.5-2.375-1.5-2.625-1.5-2.625-1.5-4.625z"
     fill="#3F4D5A"
     id="path180" />
  <path
     transform="translate(202,135)"
     d="m0 0h1c0.22363 1.4143 0.42826 2.8317 0.625 4.25 0.11602 0.78891 0.23203 1.5778 0.35156 2.3906 0.026631 2.6809-0.61064 4.0863-1.9766 6.3594h-6v-5h2l1-4 2 2 1-6z"
     fill="#4c594a"
     id="path182" />
  <path
     transform="translate(245,56)"
     d="m0 0 0.75 1.875c1.4788 2.514 2.6292 2.9784 5.25 4.125l2 2c-3.8768 1.1929-6.9162 2-11 2 0.75-6.625 0.75-6.625 3-10z"
     fill="#1C3348"
     id="path184" />
  <path
     transform="translate(169,50)"
     d="m0 0c3.4393 1.242 6.2521 2.5574 9 5v2h-2v5l-2 1c-0.84069-1.6003-1.6723-3.2054-2.5-4.8125-0.69609-1.34-0.69609-1.34-1.4062-2.707-1.0938-2.4805-1.0938-2.4805-1.0938-5.4805z"
     fill="#F2D8A1"
     id="path186" />
  <path
     transform="translate(305,102)"
     d="m0 0c7.1524 2.4298 12.642 8.2832 16 15l-2 3-4-1v-2l4 1c-4.4342-6.0351-8.1136-10.844-15-14l1-2z"
     fill="#3D434E"
     id="path188" />
  <path
     transform="translate(198,70)"
     d="m0 0v2c-1.3179 1.0203-2.6521 2.0197-4 3l-1 2-2.75-0.625c-3.4814-0.4017-4.3183 0.0075011-7.25 1.625-0.99-0.33-1.98-0.66-3-1 2.0559-1.1799 4.1184-2.3438 6.1875-3.5 1.1486-0.64969 2.2971-1.2994 3.4805-1.9688 3.1834-1.4629 4.9051-1.8927 8.332-1.5312z"
     fill="#4E585F"
     id="path190" />
  <path
     transform="translate(115,114)"
     d="m0 0c3.9582 0.56546 6.6659 1.809 10 4-3.4445 2.2963-5.9381 2.5402-10 3v-7z"
     fill="#a6d09f"
     id="path192" />
  <path
     transform="translate(176,19)"
     d="m0 0h2c2.2806 3.4209 2.2193 4.6819 2.125 8.6875-0.018047 0.99387-0.036094 1.9877-0.054688 3.0117-0.034805 1.1389-0.034805 1.1389-0.070312 2.3008h-3l-1-14z"
     fill="#F0E4B1"
     id="path194" />
  <path
     transform="translate(130,133)"
     d="m0 0h6v7h-6v-7z"
     fill="#EFE0AC"
     id="path196" />
  <path
     transform="translate(96,133)"
     d="m0 0h6v7h-6v-7z"
     fill="#ECE0AA"
     id="path198" />
  <path
     transform="translate(88,133)"
     d="m0 0h6v7h-6v-7z"
     fill="#EFE3AC"
     id="path200" />
  <path
     transform="translate(54,133)"
     d="m0 0h6v7h-6v-7z"
     fill="#ECE1A9"
     id="path202" />
  <path
     transform="translate(46,133)"
     d="m0 0h6v7h-6v-7z"
     fill="#EEE2AC"
     id="path204" />
  <path
     transform="translate(138,133)"
     d="m0 0h6v7h-6v-7z"
     fill="#E8D8A8"
     id="path206" />
  <path
     transform="translate(54,125)"
     d="m0 0h6v7h-6v-7z"
     fill="#F2E6AD"
     id="path208" />
  <path
     transform="translate(130,125)"
     d="m0 0h6v7h-6v-7z"
     fill="#F7E4AE"
     id="path210" />
  <path
     transform="translate(96,125)"
     d="m0 0h6v7h-6v-7z"
     fill="#F2E4AC"
     id="path212" />
  <path
     transform="translate(88,125)"
     d="m0 0h6v7h-6v-7z"
     fill="#F3E4AC"
     id="path214" />
  <path
     transform="translate(46,125)"
     d="m0 0h6v7h-6v-7z"
     fill="#F1E4AD"
     id="path216" />
  <path
     transform="translate(302,104)"
     d="m0 0c2.3125-0.3125 2.3125-0.3125 5 0 1.8188 2.3833 3 3.9582 3 7-3.4102-0.78697-6.6889-1.8712-10-3l2-4z"
     fill="#F6E3AE"
     id="path218" />
  <path
     transform="translate(221,66)"
     d="m0 0 2 0.8125c1.6684 0.6604 3.3443 1.3047 5.043 1.8828 0.7077 0.24492 1.4154 0.48984 2.1445 0.74219 0.67418 0.22559 1.3484 0.45117 2.043 0.68359 1.7695 0.87891 1.7695 0.87891 3.7695 3.8789-0.25 2.625-0.25 2.625-1 5l-2 1-0.375-2.875c-0.34187-3.2117-0.34187-3.2117-2.625-5.125l-2.375 0.25-2.625-0.25c-2.3125-3-2.3125-3-4-6z"
     fill="#767970"
     id="path220" />
  <path
     transform="translate(142,38)"
     d="m0 0c2.1253 0.14069 4.2503 0.28771 6.375 0.4375 1.775 0.12182 1.775 0.12182 3.5859 0.24609 3.0391 0.31641 3.0391 0.31641 5.0391 1.3164l-1 3c-5.2775-0.53852-9.2565-1.7734-14-4v-1z"
     fill="#4c594a"
     id="path222" />
  <path
     transform="translate(181,38)"
     d="m0 0c4.3169 0.35002 6.1928 1.7769 9 5l-3 3-2.25-2.0625c-2.5095-2.221-2.5095-2.221-5.0625-1.6875l-1.6875 0.75c1.875-3.875 1.875-3.875 3-5z"
     fill="#263345"
     id="path224" />
  <path
     transform="translate(259,89)"
     d="m0 0c2.9152 1.074 4.7781 1.7781 7 4v3h2v2c-4.1096-1.4504-7.4326-3.5111-11-6l2-3z"
     fill="#F1DEAA"
     id="path226" />
  <path
     transform="translate(171,11)"
     d="m0 0c2.6153 0.37927 3.7797 0.76966 5.6328 2.707 0.73863 1.0422 0.73863 1.0422 1.4922 2.1055 0.74637 1.0306 0.74637 1.0306 1.5078 2.082 3.4892 5.3734 3.4892 5.3734 2.9922 8.3555l-0.625 1.75c-2-2-2-2-3.25-5.125-1.8306-4.5054-4.7255-8.1067-7.75-11.875z"
     fill="#3F3B49"
     id="path228" />
  <path
     transform="translate(244,101)"
     d="m0 0c5.0701 0.47532 8.9749 3.0436 13 6v1c-4.3536 0.43536-7.041 0.38922-10.438-2.375-2.5625-2.625-2.5625-2.625-2.5625-4.625z"
     fill="#1E3445"
     id="path230" />
  <path
     transform="translate(213,73)"
     d="m0 0c3.5578 0.60991 6.6829 1.5784 10 3-3.0103 0.93424-3.8665 1.0445-7 0 1.1858 3.375 2.2757 5.6472 5 8-2.9152-1.074-4.7781-1.7781-7-4v-4h-2l1-3z"
     fill="#6F786D"
     id="path232" />
  <path
     transform="translate(156,21)"
     d="m0 0h7l-1 9-1-4c-2.31-0.33-4.62-0.66-7-1l2-1v-3z"
     fill="#2F3D4A"
     id="path234" />
  <path
     transform="translate(159,14)"
     d="m0 0v4c-3.1551 0.9362-5.9659 1.1057-9.25 1.0625-0.89203-0.0090234-1.7841-0.018047-2.7031-0.027344-0.67547-0.011602-1.3509-0.023203-2.0469-0.035156 2.3232-2.3232 3.8726-2.725 7-3.625 0.88688-0.26039 1.7738-0.52078 2.6875-0.78906 2.3125-0.58594 2.3125-0.58594 4.3125-0.58594z"
     fill="#E8DAA5"
     id="path236" />
  <path
     transform="translate(259,134)"
     d="m0 0h1c0.125 3.375 0.125 3.375 0 7-2 2-2 2-5.125 2.125-1.4231-0.061875-1.4231-0.061875-2.875-0.125 0.97819-1.3132 1.9576-2.6256 2.9375-3.9375 0.54527-0.7309 1.0905-1.4618 1.6523-2.2148 1.4102-1.8477 1.4102-1.8477 2.4102-2.8477z"
     fill="#F2DBA4"
     id="path238" />
  <path
     transform="translate(138,125)"
     d="m0 0h6v7h-6v-4h3v-2c-0.99-0.33-1.98-0.66-3-1z"
     fill="#F6E2A9"
     id="path240" />
  <path
     transform="translate(140,114)"
     d="m0 0-1 4c-2.3125 0.6875-2.3125 0.6875-5 1-1.8125-1.4375-1.8125-1.4375-3-3 5.625-2 5.625-2 9-2zm-7 5 1 3-4 1 1-3 2-1z"
     fill="#314050"
     id="path242" />
  <path
     transform="translate(181,58)"
     d="m0 0c2.6219 1.0487 3.7937 1.6493 5.25 4.125l0.75 1.875c-3.625 3-3.625 3-7 3v-5l2-1-1-3z"
     fill="#E6D4A4"
     id="path244" />
  <path
     transform="translate(187,40)"
     d="m0 0c4.4206 0.52569 6.8767 2.0958 10.312 4.875 0.88301 0.69867 1.766 1.3973 2.6758 2.1172 0.9958 0.99387 0.9958 0.99387 2.0117 2.0078v3c-2.5038-1.8073-5.0024-3.6217-7.5-5.4375-0.71543-0.51627-1.4309-1.0325-2.168-1.5645-0.67676-0.49307-1.3535-0.98613-2.0508-1.4941-0.62842-0.4556-1.2568-0.91121-1.9043-1.3806-0.45439-0.37069-0.90879-0.74137-1.377-1.1233v-1z"
     fill="#D8CEA2"
     id="path246" />
  <path
     transform="translate(246,105)"
     d="m0 0c2.8844 1.293 4.8722 2.6594 7 5l-4-1c0.495 0.78375 0.99 1.5675 1.5 2.375 1.5 2.625 1.5 2.625 1.5 4.625-2.867-1.2852-4.9761-2.5713-7-5 0-2 0-2 2-4l-1-2z"
     fill="#918F7E"
     id="path248" />
  <path
     transform="translate(257,90)"
     d="m0 0c1.3823 1.6263 2.7194 3.2925 4 5-3 2-3 2-6 3-1.5625-2.375-1.5625-2.375-3-5 1.2875-2.575 2.1407-3 5-3z"
     fill="#343B4D"
     id="path250" />
  <path
     transform="translate(195,79)"
     d="m0 0c7.0104 0.95596 10.169 2.7773 15 8l1 2-2.25-1c-2.8888-1.2278-2.8888-1.2278-6.75-1l-1-3 1-1c-2.31-0.99-4.62-1.98-7-3v-1z"
     fill="#B6B08F"
     id="path252" />
  <path
     transform="translate(268,57)"
     d="m0 0c2.625 0.9375 2.625 0.9375 5 2v4h-2l-1 3-1-3-2 1-1-6 2-1z"
     fill="#E8D9A3"
     id="path254" />
  <path
     transform="translate(194,89)"
     d="m0 0 4 1c-0.2475 0.53625-0.495 1.0725-0.75 1.625-0.38553 3.6625 1.6182 5.5326 3.75 8.375l-1 2c-1.2055-1.2115-2.3889-2.445-3.5625-3.6875-0.66129-0.68449-1.3226-1.369-2.0039-2.0742-1.4336-2.2383-1.4336-2.2383-1.1484-5.0078 0.2359-0.73605 0.4718-1.4721 0.71484-2.2305z"
     fill="#DDD3A5"
     id="path256" />
  <path
     transform="translate(263,116)"
     d="m0 0c2.31 0.33 4.62 0.66 7 1l-2 7h-2v-3c-1.98-0.66-3.96-1.32-6-2 0.99-0.33 1.98-0.66 3-1v-2z"
     fill="#4c594a"
     id="path258" />
  <path
     transform="translate(257,98)"
     d="m0 0c4.1096 1.4504 7.4326 3.5111 11 6l-1 4c-3.4313-1.1438-4.3785-2.2892-6.6875-5-0.62262-0.72188-1.2452-1.4438-1.8867-2.1875-1.4258-1.8125-1.4258-1.8125-1.4258-2.8125z"
     fill="#4c594a"
     id="path260" />
  <path
     transform="translate(236,97)"
     d="m0 0 6 4 2-3 5 2v3l-5-2 2 4c-3.9867-1.3669-6.8849-3.152-10-6v-2z"
     fill="#8F8775"
     id="path262" />
  <path
     transform="translate(266,93)"
     d="m0 0 9 6c-0.99 1.32-1.98 2.64-3 4l-5-5 1-2h-2v-3z"
     fill="#E4C796"
     id="path264" />
  <path
     transform="translate(218,67)"
     d="m0 0c3.914 1.2694 5.7907 2.5117 8 6-3 2-3 2-7 2v-4l-2-3 1-1z"
     fill="#1E3045"
     id="path266" />
  <path
     transform="translate(230,43)"
     d="m0 0h2c-0.072188 0.68707-0.14438 1.3741-0.21875 2.082-0.092812 0.90105-0.18562 1.8021-0.28125 2.7305-0.092812 0.89332-0.18562 1.7866-0.28125 2.707-0.26267 2.5635-0.26267 2.5635-0.21875 5.4805l-3 2c-1.3673-3.6918-0.46633-5.4636 1-9 0.037869-1.6662 0.046278-3.334 0-5l1-1z"
     fill="#4F4951"
     id="path268" />
  <path
     transform="translate(237,67)"
     d="m0 0 1 5-3 2-1-3c-2.0151-0.73324-2.0151-0.73324-4-1v-2c3-1 3-1 7-1z"
     fill="#1A3044"
     id="path270" />
  <path
     transform="translate(234,45)"
     d="m0 0 1 4 3-3c0.125 5.75 0.125 5.75-1 8l-5-1c0.875-5.75 0.875-5.75 2-8z"
     fill="#394A54"
     id="path272" />
  <path
     transform="translate(355,47)"
     d="m0 0h2l2 5-5 4-1-2h-6c2.6667-1.3333 5.3333-2.6667 8-4v-3z"
     fill="#cfd6cd"
     id="path274" />
  <path
     transform="translate(203,89)"
     d="m0 0c4.0896 2.2854 7.4636 4.9571 11 8l-1 2h-4c-0.43312-0.94875-0.86625-1.8975-1.3125-2.875-1.4805-3.3254-1.4805-3.3254-4.6875-5.125v-2z"
     fill="#445059"
     id="path276" />
  <path
     transform="translate(274,100)"
     d="m0 0c2.375 0.5625 2.375 0.5625 5 2 1.3125 3.625 1.3125 3.625 2 7l-8-6 1-3z"
     fill="#ECD7A2"
     id="path278" />
  <path
     transform="translate(155,25)"
     d="m0 0c2.97 0.495 2.97 0.495 6 1 0.125 2.875 0.125 2.875 0 6l-2 2c-4-6.75-4-6.75-4-9z"
     fill="#F2DCA4"
     id="path280" />
  <path
     transform="translate(249,109)"
     d="m0 0c6.75 1.625 6.75 1.625 9 5h-4l-2 2c-3-3.625-3-3.625-3-7z"
     fill="#394A55"
     id="path282" />
  <path
     transform="translate(208,46)"
     d="m0 0h4l-1 6h-6l3-6z"
     fill="#F6E8AF"
     id="path284" />
  <path
     transform="translate(225,43)"
     d="m0 0h2c-0.75 6.75-0.75 6.75-3 9l-3-2c1.2038-2.4936 2.4543-4.6814 4-7z"
     fill="#223148"
     id="path286" />
  <path
     transform="translate(198,132)"
     d="m0 0c2 1.0625 2 1.0625 4 3 0.25 3.6875 0.25 3.6875 0 7-2-1.0625-2-1.0625-4-3-0.25-3.6875-0.25-3.6875 0-7z"
     fill="#EEDBAA"
     id="path288" />
  <path
     transform="translate(385,75)"
     d="m0 0v8h-4c-0.1875-2.875-0.1875-2.875 0-6 3-2 3-2 4-2z"
     fill="#F8E8AD"
     id="path290" />
  <path
     transform="translate(207,53)"
     d="m0 0c2.875-0.1875 2.875-0.1875 6 0l2 3-1 3h-2l-1 2-0.3125-2.3125c-0.73114-2.8581-1.457-3.8449-3.6875-5.6875z"
     fill="#DFD4A2"
     id="path292" />
  <path
     transform="translate(169,14)"
     d="m0 0-1 2c-2.2852 0.41406-2.2852 0.41406-5.0625 0.625-0.9191 0.074766-1.8382 0.14953-2.7852 0.22656-0.71027 0.048984-1.4205 0.097969-2.1523 0.14844l1-3c3.283-1.6415 6.4255-0.51889 10 0z"
     fill="#F7E5AD"
     id="path294" />
  <path
     transform="translate(204,122)"
     d="m0 0h3v10l-2 1-1-11z"
     fill="#F7ECAB"
     id="path296" />
  <path
     transform="translate(250,116)"
     d="m0 0h2l1 2h2v-2h3c-0.75 1.9375-0.75 1.9375-2 4-2.9464 1.2768-4.9914 0.96706-8 0l2-4z"
     fill="#444D58"
     id="path298" />
  <path
     transform="translate(205,74)"
     d="m0 0c2.125 0.9375 2.125 0.9375 4 2l-1 4c-2.97-0.495-2.97-0.495-6-1 0.375-1.9375 0.375-1.9375 1-4l2-1z"
     fill="#364955"
     id="path300" />
  <path
     transform="translate(226,72)"
     d="m0 0c0.99 0.33 1.98 0.66 3 1l-4 2v2l4 1c-1.8125 0.625-1.8125 0.625-4 1-3-2-3-2-4-5l1.9375-0.4375c2.038-0.37257 2.038-0.37257 3.0625-1.5625z"
     fill="#534654"
     id="path302" />
  <path
     transform="translate(262,58)"
     d="m0 0 1 3 2-1c0.77772 2.3332 1.4242 4.6144 2 7l-2 1c-0.59812-0.63938-1.1962-1.2788-1.8125-1.9375-2.0956-2.2656-2.0956-2.2656-5.1875-3.0625 1.0655-2.1309 2.2916-3.3659 4-5z"
     fill="#615C5F"
     id="path304" />
  <path
     transform="translate(240,46)"
     d="m0 0 5 5-2 4c-3-2-3-2-3.75-4.5-0.25-2.5-0.25-2.5 0.75-4.5z"
     fill="#4B545E"
     id="path306" />
  <path
     transform="translate(218,41)"
     d="m0 0h3c1.6875 2 1.6875 2 3 4l-2 2c-3 0-3 0-6-1l2-5z"
     fill="#555E61"
     id="path308" />
  <path
     transform="translate(243,37)"
     d="m0 0h1c0.22152 1.7901 0.42682 3.5822 0.625 5.375 0.11602 0.99773 0.23203 1.9955 0.35156 3.0234 0.0077344 0.85852 0.015469 1.717 0.023438 2.6016l-2 2-2-1c-0.625-2.0625-0.625-2.0625-1-4h3l-1-3c0.4375-2.6875 0.4375-2.6875 1-5z"
     fill="#DCD2A1"
     id="path310" />
  <path
     transform="translate(427,119)"
     d="m0 0h1c0.20086 3.716 0.15194 4.7721-2 8h12v1h-13v-6h2v-3z"
     fill="#CDBA91"
     id="path312" />
  <path
     transform="translate(302.75 114.69)"
     d="m0 0 3.25 0.3125v1l-2.875 0.1875c-3.3081 0.46764-3.3081 0.46764-4.5625 3.25-0.83795 2.5354-0.83795 2.5354 0.4375 4.5625h-3c-0.75-1.6875-0.75-1.6875-1-4 2.1881-4.0115 3.1202-4.9267 7.75-5.3125z"
     fill="#323147"
     id="path314" />
  <path
     transform="translate(240,91)"
     d="m0 0 2 1v2c0.99 0.33 1.98 0.66 3 1l-1 3c-2.4936-1.2038-4.6814-2.4543-7-4v-2c0.99-0.33 1.98-0.66 3-1z"
     fill="#6E776F"
     id="path316" />
  <path
     transform="translate(213,74)"
     d="m0 0-1 2h2l1 5h-2v-2l-1.875-0.8125c-2.125-1.1875-2.125-1.1875-4.125-4.1875 3-1 3-1 6 0z"
     fill="#193146"
     id="path318" />
  <path
     transform="translate(187,62)"
     d="m0 0 2 1v3c-2.1172 1.6406-2.1172 1.6406-4.875 3.25-1.3574 0.81211-1.3574 0.81211-2.7422 1.6406-0.78633 0.36609-1.5727 0.73219-2.3828 1.1094l-2-1c0.63809-0.48211 1.2762-0.96422 1.9336-1.4609 0.82629-0.63164 1.6526-1.2633 2.5039-1.9141 0.82371-0.62648 1.6474-1.253 2.4961-1.8984 2.1517-1.5641 2.1517-1.5641 3.0664-3.7266z"
     fill="#364456"
     id="path320" />
  <path
     transform="translate(214,56)"
     d="m0 0 4 4-2 4-4-2v-3h2v-3z"
     fill="#F4E4AC"
     id="path322" />
  <path
     transform="translate(207,47)"
     d="m0 0-1 4 5 1 1-2v3l-8 1-2-5c3-2 3-2 5-2z"
     fill="#47535C"
     id="path324" />
  <path
     transform="translate(239,117)"
     d="m0 0 1.8125 1.5c2.1578 1.7828 2.1578 1.7828 5.1875 1.5l-1 3h-7l-1-2h3l-1-4z"
     fill="#AEAC8E"
     id="path326" />
  <path
     transform="translate(251,86)"
     d="m0 0 2.8125 0.5c3.1437 0.57748 3.1437 0.57748 6.1875 0.5l1 2c-2.639 1.4138-5.0712 2.3724-8 3l1-4c-0.99-0.33-1.98-0.66-3-1v-1z"
     fill="#7D7E74"
     id="path328" />
  <path
     transform="translate(200,74)"
     d="m0 0 1 3h-8v-3c2.6666-1.3333 4.1668-0.67102 7 0z"
     fill="#1A2F47"
     id="path330" />
  <path
     transform="translate(139,37)"
     d="m0 0h3v2l4 2-3 3c-2-1.8125-2-1.8125-4-4v-3z"
     fill="#2D3541"
     id="path332" />
  <path
     transform="translate(191,85)"
     d="m0 0-1 7-6-4 1-2c2.0886-0.67375 3.8036-1 6-1z"
     fill="#E0C995"
     id="path334" />
  <path
     transform="translate(35,112)"
     d="m0 0 5 1-2 5h-2l-1 2v-8z"
     fill="#FAE8AE"
     id="path336" />
  <path
     transform="translate(389,101)"
     d="m0 0h3v5l2 1-3 5-3-3c0.99-0.33 1.98-0.66 3-1v-6l-2-1z"
     fill="#182F44"
     id="path338" />
  <path
     transform="translate(201,92)"
     d="m0 0c1.1552 0.90485 2.2989 1.8244 3.4375 2.75 0.63809 0.51047 1.2762 1.0209 1.9336 1.5469 1.817 1.8998 2.2331 3.139 2.6289 5.7031l-2 1c-1.0056-1.4545-2.0043-2.9137-3-4.375-0.55688-0.81211-1.1138-1.6242-1.6875-2.4609-1.3125-2.1641-1.3125-2.1641-1.3125-4.1641z"
     fill="#424F5A"
     id="path340" />
  <path
     transform="translate(223,94)"
     d="m0 0c2.6447 3.1255 3.8441 6.0879 5 10h-2l-5-9 2-1z"
     fill="#CFBD94"
     id="path342" />
  <path
     transform="translate(201,96)"
     d="m0 0h3c1.4219 1.6797 1.4219 1.6797 2.75 3.875 0.44859 0.7193 0.89719 1.4386 1.3594 2.1797 0.29391 0.64195 0.58781 1.2839 0.89062 1.9453l-1 2c-1.1726-1.2863-2.3379-2.5792-3.5-3.875-0.64969-0.7193-1.2994-1.4386-1.9688-2.1797-1.5312-1.9453-1.5312-1.9453-1.5312-3.9453z"
     fill="#DCD4A5"
     id="path344" />
  <path
     transform="translate(203,85)"
     d="m0 0c3.791 1.4495 7.3875 3.1517 11 5v3c-4.5962-1.487-7.4697-3.7981-11-7v-1z"
     fill="#5D6667"
     id="path346" />
  <path
     transform="translate(209,61)"
     d="m0 0c1.7907 2.686 2.6606 4.6627 3.625 7.6875 0.26039 0.80824 0.52078 1.6165 0.78906 2.4492 0.19336 0.61488 0.38672 1.2298 0.58594 1.8633-1.918-0.71484-1.918-0.71484-4-2-0.86328-2.1289-0.86328-2.1289-1.3125-4.5625-0.16113-0.80566-0.32227-1.6113-0.48828-2.4414-0.098613-0.98807-0.098613-0.98807-0.19922-1.9961l1-1z"
     fill="#CEC99B"
     id="path348" />
  <path
     transform="translate(253,53)"
     d="m0 0h4v3l2 1h-2l-1 3-1-3-2 1c-0.5625-1.9375-0.5625-1.9375-1-4l1-1z"
     fill="#D0C699"
     id="path350" />
  <path
     transform="translate(189,47)"
     d="m0 0c3 1.75 3 1.75 6 4v4c-2.8844-1.293-4.8722-2.6594-7-5l1-3z"
     fill="#5c655b"
     id="path352" />
  <path
     transform="translate(277,35)"
     d="m0 0c0.26812 0.61875 0.53625 1.2375 0.8125 1.875 1.1431 2.4245 1.1431 2.4245 4.1875 4.125l-7 2 2-8z"
     fill="#b5c593"
     id="path354" />
  <path
     transform="translate(207,133)"
     d="m0 0h1v10h-3c-0.19531-6.0547-0.19531-6.0547 0-8l2-2z"
     fill="#FAEEB6"
     id="path356" />
  <path
     transform="translate(204,54)"
     d="m0 0h6l1 4h-3v-2l-4 1v-3z"
     fill="#FDEEB3"
     id="path358" />
  <path
     transform="translate(143,2)"
     d="m0 0h6c-1.75 4.875-1.75 4.875-4 6l-2-6z"
     fill="#FAD8A5"
     id="path360" />
  <path
     transform="translate(263,135)"
     d="m0 0 4 1-2 5h-5v-2l2-1 1-3z"
     fill="#332F47"
     id="path362" />
  <path
     transform="translate(389,68)"
     d="m0 0v5l-4 2v-6c3-1 3-1 4-1z"
     fill="#b1c6a0"
     id="path364" />
  <path
     transform="translate(251,42)"
     d="m0 0c6.4 0.49231 6.4 0.49231 9.4375 3.0625l1.5625 1.9375c-3.1961 0-4.4172-0.54672-7.1875-2-0.71543-0.37125-1.4309-0.7425-2.168-1.125-0.5427-0.28875-1.0854-0.5775-1.6445-0.875v-1z"
     fill="#453B42"
     id="path366" />
  <path
     transform="translate(194,42)"
     d="m0 0c4.3786 0.50522 6.8165 3.1783 10 6-0.99 0.33-1.98 0.66-3 1-1.8242-1.1797-1.8242-1.1797-3.6875-2.875-0.62262-0.5543-1.2452-1.1086-1.8867-1.6797-1.4258-1.4453-1.4258-1.4453-1.4258-2.4453z"
     fill="#273444"
     id="path368" />
  <path
     transform="translate(387,133)"
     d="m0 0h4v5h-4v-5z"
     fill="#BAB795"
     id="path370" />
  <path
     transform="translate(360,133)"
     d="m0 0h4v5h-4v-5z"
     fill="#BBBC95"
     id="path372" />
  <path
     transform="translate(138,134)"
     d="m0 0 4 1h-2v2h2v3h-4v-6z"
     fill="#FBEEB5"
     id="path374" />
  <path
     transform="translate(197,113)"
     d="m0 0h3c1.3867 1.5312 1.3867 1.5312 2.6875 3.5 0.43699 0.64969 0.87398 1.2994 1.3242 1.9688 0.32613 0.50531 0.65227 1.0106 0.98828 1.5312-3.3373-1.1726-5.7744-2.1887-8-5v-2z"
     fill="#E1D9A6"
     id="path376" />
  <path
     transform="translate(369,110)"
     d="m0 0h4v5h-4v-5z"
     fill="#BCB995"
     id="path378" />
  <path
     transform="translate(239,96)"
     d="m0 0c4.875 1.75 4.875 1.75 6 4h-2l-1 2-4-3 1-3z"
     fill="#1D3348"
     id="path380" />
  <path
     transform="translate(267,78)"
     d="m0 0c1.3122 3.9367 0.24296 6.1249-1 10l-3-3c1.2038-2.4936 2.4543-4.6814 4-7z"
     fill="#BFBA93"
     id="path382" />
  <path
     transform="translate(176,52)"
     d="m0 0h4l2 6-7-4 1-2z"
     fill="#2B3B4F"
     id="path384" />
  <path
     transform="translate(172,48)"
     d="m0 0-4 4c-0.99-0.33-1.98-0.66-3-1l1-3c2.4909-1.2455 3.4108-0.77676 6 0z"
     fill="#2F3145"
     id="path386" />
  <path
     transform="translate(236,114)"
     d="m0 0c4 4.75 4 4.75 4 7l-4-1c-0.38219-1.6561-0.71395-3.3246-1-5l1-1z"
     fill="#172C47"
     id="path388" />
  <path
     transform="translate(230,108)"
     d="m0 0 1 2h2c-1.0487 2.6219-1.6493 3.7937-4.125 5.25l-1.875 0.75c0.30938-0.76312 0.61875-1.5262 0.9375-2.3125 0.74144-1.8754 1.4248-3.7743 2.0625-5.6875z"
     fill="#DCD4A1"
     id="path390" />
  <path
     transform="translate(228,96)"
     d="m0 0 7 5-2 5-0.8125-1.75c-1.138-2.3075-1.138-2.3075-2.8125-4.375-1.375-1.875-1.375-1.875-1.375-3.875z"
     fill="#DDD4A2"
     id="path392" />
  <path
     transform="translate(275,99)"
     d="m0 0c3.9946 0.61455 6.7447 2.7065 10 5l-2 2c-1.3362-0.97529-2.6689-1.9553-4-2.9375-0.7425-0.54527-1.485-1.0905-2.25-1.6523-0.5775-0.46535-1.155-0.9307-1.75-1.4102v-1z"
     fill="#363F49"
     id="path394" />
  <path
     transform="translate(208,92)"
     d="m0 0c4.2482 0.47202 6.1999 2.9666 9 6l-1 2c-1.3363-1.1424-2.669-2.289-4-3.4375-0.7425-0.63809-1.485-1.2762-2.25-1.9336-0.5775-0.53754-1.155-1.0751-1.75-1.6289v-1z"
     fill="#CBC79B"
     id="path396" />
  <path
     transform="translate(223,50)"
     d="m0 0c1.4294 2.3544 2.0866 3.4803 1.625 6.25l-0.625 1.75h-2c-0.625-2.875-0.625-2.875-1-6l2-2z"
     fill="#393D4F"
     id="path398" />
  <path
     transform="translate(165,12)"
     d="m0 0h7v4c-2.31-0.99-4.62-1.98-7-3v-1z"
     fill="#EED7A5"
     id="path400" />
  <path
     transform="translate(119,101)"
     d="m0 0 6 3c-1.75 1.125-1.75 1.125-4 2-2.25-0.875-2.25-0.875-4-2h2v-3z"
     fill="#cfd6cd"
     id="path402" />
  <path
     transform="translate(263,86)"
     d="m0 0 1 4h2v2l2 1c-2.9618-0.61278-4.3806-1.2537-7-3l2-4z"
     fill="#21364C"
     id="path404" />
  <path
     transform="translate(232,71)"
     d="m0 0h2c2 3 2 3 1.75 5.625-0.2475 0.78375-0.495 1.5675-0.75 2.375l-2 1-1-9z"
     fill="#5A6261"
     id="path406" />
  <path
     transform="translate(249,45)"
     d="m0 0c1.0327 2.7882 1.0451 3.8677 0.0625 6.75-0.35062 0.7425-0.70125 1.485-1.0625 2.25-2-3-2-3-1.75-5.625 0.2475-0.78375 0.495-1.5675 0.75-2.375l2-1z"
     fill="#D6CA99"
     id="path408" />
  <path
     transform="translate(181,38)"
     d="m0 0c1.6754 0.28605 3.3439 0.61781 5 1-2.622 2.1538-4.644 3.4007-8 4 1.875-3.875 1.875-3.875 3-5z"
     fill="#3F3D47"
     id="path410" />
  <path
     transform="translate(182,35)"
     d="m0 0c2.9139 0.29139 3.8257 0.79452 5.75 3.0625l1.25 1.9375-5-1v-2c-0.99-0.33-1.98-0.66-3-1l1-1z"
     fill="#EBE0AB"
     id="path412" />
  <path
     transform="translate(180,26)"
     d="m0 0v7h-3v-6c2-1 2-1 3-1z"
     fill="#F9E9AC"
     id="path414" />
  <path
     transform="translate(370,28)"
     d="m0 0v3h-5l-1-3c2.4909-1.2455 3.4108-0.77676 6 0z"
     fill="#cfd6cd"
     id="path416" />
  <path
     transform="translate(423,114)"
     d="m0 0c-2 2-2 2-5.625 2.125-1.1138-0.04125-2.2275-0.0825-3.375-0.125 3.0544-3.0544 5.0468-3.2269 9-2z"
     fill="#FAD0A2"
     id="path418" />
  <path
     transform="translate(182,90)"
     d="m0 0c1.5 1.3125 1.5 1.3125 3 3v3c-1.9375-0.8125-1.9375-0.8125-4-2l-1-3 2-1z"
     fill="#F3E5B1"
     id="path420" />
</svg>
