<?xml version="1.0" standalone="no"?>
<!DOCTYPE svg PUBLIC "-//W3C//DTD SVG 20010904//EN"
 "http://www.w3.org/TR/2001/REC-SVG-20010904/DTD/svg10.dtd">
<svg version="1.0" xmlns="http://www.w3.org/2000/svg"
 width="300.000000pt" height="294.000000pt" viewBox="0 0 300.000000 294.000000"
 preserveAspectRatio="xMidYMid meet">

<g transform="translate(0.000000,294.000000) scale(0.100000,-0.100000)"
fill="#000000" stroke="none">
<path d="M1412 2908 c-16 -16 -16 -123 1 -136 18 -15 173 -25 197 -12 17 9 20
21 20 73 0 36 -5 68 -12 75 -16 16 -190 16 -206 0z"/>
<path d="M1085 2739 c-16 -5 -72 -12 -123 -16 -51 -3 -95 -9 -97 -13 -4 -7 -7
-251 -6 -496 l1 -111 63 -27 c97 -41 97 -41 97 58 0 118 -1 116 84 116 124 1
145 41 142 271 -1 113 -4 141 -20 172 -29 53 -72 67 -141 46z m-7 -253 c3 -65
2 -67 -20 -64 -20 3 -23 9 -26 56 -3 54 10 86 32 79 6 -2 12 -33 14 -71z"/>
<path d="M1313 2696 l-28 -24 -3 -279 c-4 -312 0 -343 51 -373 28 -17 51 -20
167 -20 152 0 179 8 195 57 6 17 10 96 9 174 -3 171 -3 171 -109 167 l-70 -3
-5 -100 c-5 -92 -7 -100 -25 -100 -19 0 -20 8 -23 166 -2 138 0 168 13 179 23
19 43 5 51 -35 l6 -36 77 3 76 3 3 96 c2 83 0 98 -16 112 -22 21 -132 36 -254
37 -78 0 -90 -3 -115 -24z"/>
<path d="M1750 2373 c0 -186 4 -344 9 -352 7 -11 22 -11 92 0 l84 14 0 107 c0
72 4 111 13 119 23 24 31 -4 34 -111 l3 -105 50 3 c27 2 64 10 82 17 l34 14
-3 271 c-3 303 3 279 -85 305 -94 27 -92 29 -95 -82 -2 -79 -6 -98 -18 -98
-12 0 -16 21 -20 105 l-5 105 -45 12 c-25 6 -64 12 -87 12 l-43 1 0 -337z"/>
<path d="M685 2441 c-50 -23 -109 -84 -130 -133 -18 -45 -20 -108 -2 -108 63
0 170 67 216 134 25 37 51 96 51 117 0 16 -95 9 -135 -10z"/>
<path d="M2180 2444 c0 -8 12 -40 27 -71 41 -82 130 -152 216 -168 37 -7 37
-7 37 26 0 77 -75 181 -152 213 -51 22 -128 21 -128 0z"/>
<path d="M386 2301 c-83 -112 -96 -137 -96 -181 0 -39 47 -241 58 -252 11 -11
200 53 249 85 37 23 104 110 150 196 l13 24 -54 -6 c-72 -7 -150 -44 -212
-101 -29 -25 -54 -46 -57 -46 -3 0 4 26 16 58 17 45 21 79 21 162 0 58 -5 116
-10 129 -10 22 -14 18 -78 -68z"/>
<path d="M2526 2353 c-3 -21 -6 -73 -6 -116 0 -73 -1 -77 -19 -66 -26 17 -51
4 -51 -25 0 -32 35 -42 58 -15 16 19 17 18 29 -23 6 -24 15 -54 19 -68 6 -22
1 -19 -42 21 -61 56 -145 98 -219 108 -66 9 -66 12 4 -93 73 -108 116 -141
236 -178 55 -17 102 -33 104 -34 2 -2 -2 -10 -8 -18 -21 -25 -4 -58 27 -54 34
4 41 35 14 57 -19 16 -19 17 11 143 37 156 35 168 -57 289 -87 115 -92 119
-100 72z"/>
<path d="M490 2165 c-26 -31 18 -71 47 -42 19 19 8 57 -16 57 -10 0 -24 -7
-31 -15z"/>
<path d="M168 2027 c-34 -54 -58 -128 -58 -176 0 -108 39 -214 104 -284 l36
-38 73 34 c101 47 212 152 257 243 17 36 30 67 28 69 -7 6 -115 -14 -151 -30
-21 -8 -64 -40 -95 -70 -31 -30 -57 -55 -58 -55 0 0 -4 37 -7 83 -7 88 -31
163 -73 227 -15 22 -27 40 -28 40 0 0 -13 -19 -28 -43z"/>
<path d="M2775 2037 c-40 -65 -66 -152 -72 -235 l-6 -83 -56 54 c-31 30 -77
64 -102 76 -46 21 -149 40 -149 27 0 -4 13 -33 30 -65 56 -112 183 -224 294
-261 36 -11 39 -11 68 16 45 44 69 88 89 167 24 89 24 130 0 207 -17 55 -58
130 -71 130 -3 0 -14 -15 -25 -33z"/>
<path d="M1440 1460 c0 -269 -4 -490 -8 -490 -5 0 -27 13 -50 29 -37 28 -41
35 -47 88 -4 32 -10 70 -15 86 -5 15 -12 55 -15 90 -14 141 -90 246 -124 171
-17 -39 -32 -25 -50 47 -28 113 -72 151 -132 115 l-28 -16 -26 49 c-29 52 -80
89 -109 78 -9 -4 -24 -20 -34 -37 -20 -35 -27 -36 -67 -10 -38 25 -100 26
-141 1 -52 -31 -65 -127 -24 -176 9 -10 6 -19 -9 -34 -12 -12 -21 -33 -21 -48
0 -55 78 -123 141 -123 32 0 79 -19 79 -32 0 -4 -17 -16 -37 -25 -21 -10 -39
-26 -41 -36 -5 -26 33 -63 85 -83 42 -16 49 -16 118 0 78 18 115 15 115 -10 0
-8 -15 -21 -33 -29 -18 -7 -41 -23 -51 -34 -17 -19 -17 -22 -3 -44 24 -38 82
-42 223 -16 l120 22 62 -48 c34 -27 62 -52 62 -56 0 -4 -30 -17 -67 -30 -108
-35 -224 -85 -336 -144 -57 -30 -111 -55 -120 -55 -44 0 16 -73 89 -107 32
-16 34 -15 71 13 21 15 54 43 73 61 19 18 38 33 41 33 3 0 23 13 43 29 53 42
249 135 260 124 3 -4 6 -88 6 -188 l0 -181 28 -32 c31 -39 86 -55 136 -41 64
18 86 69 86 201 l0 90 83 -64 c147 -114 143 -112 180 -95 31 15 95 74 86 80
-2 1 -58 30 -124 64 -193 99 -224 117 -229 138 -8 29 -7 78 2 91 24 36 321 48
472 20 l84 -16 30 30 31 30 -41 0 c-22 0 -44 3 -47 7 -4 3 15 30 42 58 35 37
54 68 65 105 19 65 20 99 4 105 -22 7 -520 35 -529 29 -13 -8 2 -115 22 -155
10 -20 37 -53 60 -73 24 -20 41 -37 38 -39 -7 -6 -224 -25 -231 -20 -5 2 -8
227 -8 499 l0 494 -120 0 -120 0 0 -490z m-574 -37 c143 -105 328 -283 304
-291 -15 -6 -50 18 -144 97 -164 137 -253 231 -218 231 4 0 30 -17 58 -37z"/>
<path d="M325 1846 c-27 -20 -15 -51 20 -51 23 0 31 5 33 22 4 29 -28 47 -53
29z"/>
<path d="M2099 1840 c-8 -11 -43 -35 -79 -53 -54 -27 -69 -39 -87 -77 -39 -78
-108 -399 -90 -417 11 -11 119 -22 293 -29 l162 -7 6 79 c14 192 16 291 7 322
-14 46 -64 107 -105 126 -25 12 -36 24 -38 44 -4 35 -48 43 -69 12z"/>
<path d="M40 1648 c-21 -59 -23 -132 -5 -194 35 -119 90 -193 179 -240 l53
-28 34 24 c104 74 187 216 197 337 l5 66 -44 -24 c-23 -13 -60 -41 -81 -62
-38 -40 -98 -152 -98 -185 0 -45 -16 -26 -40 47 -30 89 -101 209 -153 259
l-35 34 -12 -34z"/>
<path d="M2904 1638 c-53 -55 -116 -165 -144 -251 -20 -61 -40 -81 -40 -39 0
27 -46 118 -82 162 -31 39 -111 100 -131 100 -6 0 -7 -24 -3 -62 12 -116 106
-276 197 -333 l37 -24 44 21 c65 31 116 85 156 168 32 66 36 84 36 155 1 51
-4 92 -14 113 l-15 33 -41 -43z"/>
<path d="M240 1480 c-9 -16 -8 -25 1 -36 27 -33 75 -2 52 35 -15 24 -40 25
-53 1z"/>
<path d="M2707 1494 c-13 -14 -7 -43 12 -53 27 -15 60 11 45 36 -12 19 -45 29
-57 17z"/>
<path d="M454 1317 c-64 -73 -104 -182 -104 -281 l0 -71 -26 33 c-14 18 -40
54 -58 80 -23 33 -57 62 -117 99 -97 60 -118 66 -90 26 10 -16 25 -53 31 -83
34 -151 147 -264 270 -272 53 -3 69 17 107 132 23 71 28 102 28 190 0 139 -11
180 -41 147z"/>
<path d="M2515 1293 c-22 -113 8 -310 62 -402 25 -43 25 -43 73 -38 58 6 102
26 154 68 53 44 83 96 107 186 11 43 28 89 36 101 8 13 13 25 11 27 -2 2 -44
-21 -94 -51 -80 -47 -97 -62 -134 -118 -59 -92 -70 -99 -70 -45 0 50 -26 161
-48 204 -19 38 -71 105 -82 105 -4 0 -11 -17 -15 -37z"/>
<path d="M280 1135 c-18 -22 -8 -50 19 -50 32 0 49 28 32 49 -17 20 -35 20
-51 1z"/>
<path d="M2673 1134 c-14 -38 37 -71 56 -35 8 15 7 23 -5 35 -20 21 -43 20
-51 0z"/>
<path d="M509 965 c-14 -31 -24 -75 -27 -115 -3 -59 1 -90 24 -170 6 -23 3
-21 -35 14 l-41 40 20 21 c27 29 17 57 -19 53 -21 -2 -26 -8 -26 -30 1 -33 1
-33 -40 -8 -42 26 -141 60 -174 60 l-26 0 27 -24 c14 -14 34 -47 44 -73 10
-28 38 -70 67 -99 64 -67 132 -91 216 -78 52 8 57 12 76 49 15 32 19 61 20
145 0 102 -1 106 -32 151 -17 25 -36 61 -41 80 l-10 34 -23 -50z"/>
<path d="M2461 975 c-5 -21 -23 -56 -38 -78 -26 -38 -28 -47 -28 -141 0 -113
22 -183 60 -191 76 -15 97 -14 152 4 68 24 144 97 163 158 7 21 25 54 40 74
l29 36 -42 -8 c-53 -9 -155 -47 -162 -60 -11 -17 -25 -9 -25 15 0 26 -20 39
-45 30 -22 -9 -19 -53 5 -62 19 -7 17 -10 -19 -45 -47 -44 -54 -46 -40 -10 5
15 12 61 16 102 4 62 1 87 -16 135 -28 79 -37 87 -50 41z"/>
<path d="M670 698 c0 -70 23 -164 55 -223 14 -27 23 -50 21 -52 -2 -2 -25 9
-52 25 -27 16 -71 36 -99 46 -56 19 -180 32 -219 22 l-25 -6 19 -33 c46 -78
135 -134 256 -163 57 -13 80 -14 134 -4 96 16 95 15 95 117 -1 118 -26 184
-105 264 -32 32 -63 59 -69 59 -7 0 -11 -21 -11 -52z"/>
<path d="M2279 717 c-95 -84 -144 -223 -123 -349 6 -33 10 -37 50 -47 115 -29
263 2 361 75 31 24 99 112 91 119 -2 2 -28 5 -58 8 -94 6 -222 -30 -303 -86
-16 -10 -30 -17 -32 -15 -2 2 9 31 24 63 33 70 51 146 51 215 0 60 -11 63 -61
17z"/>
<path d="M2347 553 c-27 -7 -19 -57 10 -61 30 -4 49 31 27 52 -8 9 -16 15 -17
15 -1 -1 -10 -3 -20 -6z"/>
<path d="M624 535 c-9 -23 3 -45 24 -45 29 0 48 26 32 45 -7 8 -21 15 -32 15
-10 0 -21 -7 -24 -15z"/>
<path d="M890 497 c0 -57 38 -132 96 -190 l48 -48 -52 3 c-29 2 -52 4 -52 6 0
1 5 11 12 21 6 10 8 26 5 35 -8 21 -53 21 -61 0 -8 -21 -8 -20 9 -37 16 -17 5
-20 -125 -32 -95 -9 -100 -15 -45 -63 59 -52 119 -72 214 -72 118 1 231 54
231 110 -1 91 -129 246 -242 293 l-38 16 0 -42z"/>
<path d="M2069 516 c-67 -31 -103 -60 -146 -118 -48 -65 -62 -92 -72 -139 -10
-45 -1 -62 47 -93 83 -52 238 -59 329 -15 48 23 107 79 95 91 -4 4 -56 13
-116 20 -72 8 -102 14 -92 20 38 21 2 77 -36 57 -22 -12 -23 -33 -2 -53 14
-15 14 -16 -3 -16 -10 0 -36 -3 -58 -6 l-40 -7 51 54 c29 30 59 68 68 85 20
42 34 106 27 125 -5 14 -11 13 -52 -5z"/>
<path d="M1170 420 c-33 -20 93 -170 177 -211 51 -25 51 -26 -23 -32 l-52 -4
2 31 c1 27 -3 31 -26 34 -24 3 -28 0 -28 -20 0 -13 5 -29 11 -35 13 -13 9 -15
-61 -38 -55 -18 -130 -61 -130 -75 0 -20 154 -27 228 -10 62 15 132 49 168 82
29 27 31 32 22 67 -13 53 -74 129 -131 164 -53 33 -139 58 -157 47z"/>
<path d="M1771 414 c-22 -6 -54 -21 -73 -32 -70 -43 -148 -148 -148 -197 0
-36 98 -99 195 -124 67 -18 235 -11 235 10 0 9 -102 69 -117 69 -6 0 -27 7
-48 15 -27 12 -34 19 -26 28 5 7 8 23 4 36 -4 17 -12 21 -32 19 -22 -3 -26 -8
-25 -33 l1 -30 -63 3 -64 4 60 29 c64 33 131 100 168 168 12 24 22 45 22 47 0
7 -49 0 -89 -12z"/>
<path d="M1487 273 c-4 -3 -7 -17 -7 -30 0 -19 5 -23 29 -23 32 0 43 16 29 43
-9 17 -39 23 -51 10z"/>
<path d="M1485 116 c-12 -9 -15 -19 -10 -35 9 -30 59 -26 63 6 4 29 -28 47
-53 29z"/>
</g>
</svg>
